<?xml version="1.0" standalone="no"?>
<!DOCTYPE svg PUBLIC "-//W3C//DTD SVG 20010904//EN"
 "http://www.w3.org/TR/2001/REC-SVG-20010904/DTD/svg10.dtd">
<svg version="1.0" xmlns="http://www.w3.org/2000/svg"
 width="16.000000pt" height="16.000000pt" viewBox="0 0 16.000000 16.000000"
 preserveAspectRatio="xMidYMid meet">
<metadata>
Created by potrace 1.11, written by Peter Selinger 2001-2013
</metadata>
<g transform="translate(0.000000,16.000000) scale(0.001600,-0.001600)"
fill="#000000" stroke="none">
<path d="M3028 7369 c-3 -1340 -3 -1344 -22 -1284 -11 33 -21 65 -22 70 -4 15
-36 120 -99 325 -31 102 -95 311 -141 465 -47 154 -122 399 -166 545 -44 146
-92 304 -106 353 l-26 87 -447 0 -446 0 28 -82 c15 -46 85 -249 154 -453 70
-203 139 -408 155 -455 16 -47 81 -238 146 -425 64 -187 127 -371 140 -410 12
-38 91 -270 174 -515 84 -245 169 -497 190 -560 149 -445 323 -950 342 -989
28 -56 30 -59 96 -131 l52 -57 0 -492 0 -492 58 32 c31 18 59 35 62 38 3 3 23
16 45 28 22 11 56 30 75 42 19 11 49 28 65 37 17 9 140 81 275 159 135 78 268
155 295 170 58 33 149 86 173 100 9 6 44 25 77 44 33 19 114 66 180 105 149
88 193 113 225 129 14 6 27 14 30 17 3 4 55 34 115 69 61 34 147 84 193 111
46 27 92 52 103 55 10 4 19 10 19 15 0 4 12 13 28 19 15 6 34 15 42 21 27 18
170 100 175 100 3 0 29 16 59 35 30 19 57 35 60 35 2 0 61 34 131 75 69 41
131 75 136 75 5 0 9 5 9 10 0 6 4 10 9 10 5 0 52 25 105 55 52 30 99 55 103
55 5 0 23 -51 42 -112 18 -62 37 -122 42 -133 4 -11 15 -42 22 -70 63 -220
212 -381 412 -446 101 -33 252 -33 353 0 126 41 245 133 316 244 43 67 41 63
121 297 171 498 331 969 373 1092 25 75 50 135 54 132 4 -3 8 0 8 6 0 6 4 9 9
6 5 -4 11 -3 13 2 2 6 83 55 251 151 18 10 67 39 109 63 l77 44 -77 46 c-42
25 -113 67 -157 93 -44 26 -81 48 -83 50 -1 1 27 87 64 191 36 104 67 196 69
204 2 8 20 62 40 120 20 58 94 274 165 480 138 405 207 607 280 823 l47 137
-446 0 -447 0 -23 -77 c-38 -129 -194 -642 -261 -860 -10 -34 -56 -185 -101
-335 -45 -150 -83 -274 -84 -276 -4 -5 -90 41 -93 50 -2 4 -8 8 -13 8 -5 0
-64 32 -132 71 -67 40 -138 81 -157 92 -19 10 -109 62 -199 114 -91 53 -188
108 -215 124 -28 15 -78 43 -111 63 -175 105 -264 156 -269 156 -2 0 -2 -10 1
-22 3 -13 3 -21 0 -18 -3 3 -8 17 -11 30 -3 14 -33 113 -66 220 -67 213 -151
486 -183 593 l-20 67 -613 0 -612 0 -64 37 c-34 20 -78 43 -95 52 -18 8 -33
19 -33 23 0 4 -5 8 -10 8 -6 0 -27 11 -48 23 -20 13 -57 35 -82 49 -25 14
-117 67 -205 118 -88 51 -185 106 -215 123 -30 16 -59 33 -65 37 -5 4 -26 17
-45 28 -78 44 -167 96 -195 113 -16 10 -37 22 -45 26 -8 4 -48 26 -88 50 -41
24 -76 43 -78 43 -3 0 -21 12 -40 26 l-34 26 -2 -1343z m124 1163 c3 -7 65
-44 363 -216 39 -22 72 -44 73 -48 2 -4 12 -8 22 -8 9 0 23 -7 30 -15 7 -8 18
-15 25 -15 7 0 18 -7 25 -15 7 -8 16 -13 20 -10 5 3 10 1 12 -3 1 -5 28 -22
58 -39 30 -16 120 -68 200 -115 80 -47 159 -93 175 -102 17 -9 57 -32 90 -51
33 -20 70 -41 83 -47 28 -14 30 -6 -55 -275 -35 -115 -68 -221 -73 -238 -4
-16 -37 -124 -73 -240 -36 -115 -72 -232 -80 -260 -16 -52 -98 -317 -213 -687
-36 -117 -72 -233 -79 -258 -7 -25 -61 -200 -119 -390 -59 -190 -125 -403
-147 -475 -22 -71 -50 -159 -62 -195 l-21 -65 -12 40 c-6 22 -29 94 -49 160
-20 66 -43 140 -50 165 -8 25 -22 74 -33 110 -40 130 -122 406 -131 437 -6 23
-15 794 -11 1043 0 8 0 41 1 72 0 31 -2 62 -6 67 -3 6 -3 11 2 11 8 0 7 124
-1 147 -3 7 -2 13 2 13 9 0 7 64 -3 79 -3 6 -2 11 4 11 6 0 6 11 1 30 -5 16
-5 32 -2 34 4 2 6 22 4 43 -3 45 -3 43 -2 108 1 28 1 68 1 90 0 22 -1 58 0 80
0 22 0 171 0 330 0 160 0 311 0 337 0 26 -2 52 -6 58 -3 5 -1 10 5 10 6 0 8 5
5 10 -4 6 -6 34 -6 63 2 128 1 169 -4 177 -3 5 -1 11 4 15 6 3 8 12 4 20 -5
16 22 22 29 7z m1928 -1502 c45 -140 95 -298 112 -350 16 -52 51 -162 78 -245
53 -164 158 -492 276 -862 41 -131 95 -299 119 -373 39 -121 150 -472 177
-558 5 -18 8 -35 6 -36 -1 -2 -23 -14 -48 -27 -25 -13 -47 -27 -50 -31 -3 -4
-17 -12 -30 -18 -14 -6 -34 -16 -45 -23 -11 -7 -63 -36 -115 -66 -52 -29 -107
-62 -122 -73 -16 -11 -28 -16 -28 -11 0 4 -4 3 -8 -3 -4 -6 -38 -28 -77 -49
-38 -21 -71 -42 -73 -47 -2 -4 -7 -8 -12 -8 -10 0 -211 -115 -1435 -823 -104
-60 -206 -118 -225 -129 -19 -11 -107 -62 -195 -113 -190 -110 -252 -145 -258
-145 -3 0 -5 169 -5 376 0 343 2 375 17 368 99 -42 153 -56 236 -59 103 -3
191 12 270 49 30 14 55 22 55 19 0 -4 7 2 16 13 8 10 13 12 9 4 -4 -8 2 -4 13
9 11 14 24 21 31 17 7 -5 10 -2 9 6 -2 7 4 12 12 10 8 -2 12 0 7 4 -10 10 23
45 36 37 6 -3 7 -1 3 5 -3 6 4 18 16 26 12 9 19 16 15 16 -4 0 1 10 12 21 41
44 91 160 155 364 37 116 71 221 76 235 5 14 36 113 70 220 57 180 125 392
186 582 14 43 26 81 26 85 0 5 5 19 10 33 5 14 66 201 134 415 69 215 165 514
214 665 149 465 218 684 226 713 3 16 10 25 14 20 5 -4 45 -123 90 -263z m888
-131 c24 -12 203 -115 242 -139 8 -5 65 -37 125 -71 61 -34 112 -66 113 -71 2
-4 8 -8 13 -8 12 0 525 -295 568 -327 4 -3 -18 -81 -89 -313 -26 -85 -82 -270
-125 -410 -42 -140 -80 -266 -85 -280 -5 -14 -21 -64 -35 -112 l-26 -87 -80
-46 c-45 -26 -83 -45 -85 -43 -3 4 -56 170 -144 458 -21 69 -104 339 -185 600
-81 261 -153 495 -160 520 -7 25 -32 106 -55 180 -51 166 -60 194 -60 198 0 1
9 -6 20 -16 11 -10 33 -25 48 -33z m1769 -1015 c-3 -4 20 -21 52 -38 33 -17
69 -38 82 -47 l22 -15 -34 -18 c-19 -9 -50 -26 -69 -37 -130 -77 -144 -83
-136 -63 4 10 21 59 37 109 17 49 32 96 34 103 2 6 8 12 11 12 4 0 5 -3 1 -6z
m-1122 -981 c-8 -27 -20 -68 -28 -92 l-14 -45 -16 49 c-24 70 -22 80 26 109
23 14 43 25 44 26 0 0 -5 -21 -12 -47z"/>
<path d="M3345 2341 c-67 -14 -70 -18 -73 -148 -2 -69 -9 -124 -15 -132 -9
-11 -9 -13 0 -8 9 6 12 -10 11 -58 -1 -36 -5 -68 -10 -71 -4 -3 -8 -1 -8 5 0
5 -9 13 -20 16 -11 3 -20 13 -20 21 0 8 -3 13 -7 12 -12 -3 -53 13 -53 20 0 4
-12 8 -26 9 -15 0 -30 7 -35 15 -7 10 -9 10 -9 0 0 -7 -5 -10 -10 -7 -13 8
-99 10 -120 2 -117 -39 -196 -88 -216 -132 -6 -11 -16 -19 -23 -17 -7 1 -10
-2 -6 -7 3 -6 1 -18 -5 -28 -9 -17 -26 -58 -38 -93 -12 -36 -9 -223 4 -248 7
-14 11 -29 8 -34 -3 -4 0 -8 5 -8 6 0 11 -7 11 -15 0 -9 9 -26 20 -38 11 -12
18 -27 16 -34 -3 -7 -2 -12 2 -10 4 1 22 -11 39 -27 28 -24 31 -32 20 -45 -11
-14 -10 -15 7 -1 16 13 20 12 32 -5 8 -10 14 -16 14 -12 0 4 10 2 23 -5 12 -7
25 -11 29 -10 4 1 10 -7 13 -18 4 -11 11 -17 17 -14 6 4 5 10 -3 16 -10 7 -8
8 6 2 11 -4 39 -7 63 -7 23 0 42 -4 42 -8 0 -4 -9 -6 -19 -4 -14 3 -18 -1 -14
-12 3 -8 9 -11 12 -6 3 4 12 9 19 11 9 2 12 -4 7 -20 -4 -18 -2 -16 12 7 17
28 25 33 63 40 22 4 52 -14 44 -27 -5 -7 -2 -8 5 -4 9 6 8 13 -5 27 -15 17
-15 19 -1 19 8 0 18 -6 20 -12 3 -7 6 -3 6 10 1 12 6 22 11 22 19 0 25 3 36
18 15 21 47 25 40 6 -8 -22 34 -59 66 -58 15 1 39 9 53 18 14 9 29 15 33 12 4
-2 8 4 8 14 0 10 -4 16 -9 13 -11 -7 -6 68 6 85 6 8 6 12 -2 12 -6 0 -11 5
-11 10 0 7 6 7 19 0 15 -7 22 -7 27 2 4 7 4 10 -1 6 -18 -16 -42 11 -43 49 0
27 2 32 7 18 7 -18 8 -17 13 7 4 21 2 25 -11 20 -14 -5 -14 -3 -2 11 7 9 9 17
4 17 -13 0 -13 32 0 48 5 7 6 12 0 12 -11 0 -11 50 0 68 5 6 4 12 -1 12 -10 0
-10 50 1 68 5 6 4 12 -1 12 -10 0 -10 50 1 68 5 6 4 12 0 12 -5 0 -9 15 -10
33 -2 24 0 27 6 12 7 -18 8 -17 13 7 3 17 1 25 -6 22 -7 -3 -12 4 -12 15 0 11
4 17 8 15 4 -3 8 0 8 5 0 6 -4 11 -8 11 -11 0 -10 51 1 68 5 7 4 12 -2 12 -6
0 -11 5 -11 10 0 7 6 7 19 0 15 -7 22 -7 27 2 4 7 4 10 -1 6 -18 -16 -42 11
-43 49 0 27 2 32 7 18 7 -18 8 -17 13 7 3 18 1 25 -7 22 -9 -4 -12 18 -11 80
1 46 -2 83 -5 81 -8 -6 -38 32 -32 39 4 3 4 5 2 5 -2 -1 -17 -4 -34 -8z m-303
-477 c-2 -15 1 -13 13 6 9 14 14 17 11 7 -3 -10 -2 -15 4 -12 37 23 72 7 48
-22 -12 -15 -11 -15 9 -3 12 8 19 18 16 23 -3 5 4 4 17 -3 12 -6 19 -17 17
-24 -3 -7 1 -13 9 -13 7 0 11 5 8 11 -3 6 1 3 9 -6 8 -10 18 -14 22 -10 5 4 5
-2 1 -13 -4 -11 -4 -16 0 -13 4 4 15 3 25 -3 22 -11 26 -67 7 -88 -10 -11 -10
-13 0 -7 7 4 12 2 12 -6 0 -8 -6 -20 -12 -27 -10 -11 -10 -13 0 -7 9 6 12 -15
12 -91 0 -95 -1 -99 -29 -125 -33 -32 -125 -80 -155 -83 -12 0 -27 4 -35 9
-11 8 -13 8 -7 -1 4 -8 1 -13 -9 -13 -10 0 -13 5 -9 13 6 9 5 9 -7 0 -15 -12
-69 -6 -69 8 0 5 -8 5 -17 2 -13 -5 -15 -2 -10 12 6 14 5 15 -6 7 -10 -9 -19
-5 -38 13 -38 38 -48 52 -42 59 4 3 1 6 -5 6 -6 0 -9 7 -5 17 4 10 2 14 -4 10
-16 -10 -23 45 -9 65 7 10 15 15 18 12 3 -3 9 -1 12 4 3 5 -2 9 -12 9 -43 0
-45 2 -31 20 10 11 10 14 2 9 -8 -4 -13 -2 -13 5 0 6 8 9 19 6 13 -3 18 -1 14
9 -2 7 -11 10 -18 8 -9 -4 -12 1 -10 13 2 10 4 19 5 21 2 1 3 11 4 21 0 11 5
23 10 28 5 5 6 3 2 -4 -4 -7 -3 -13 2 -13 5 0 12 9 15 19 3 15 1 18 -12 14
-14 -4 -14 -3 1 7 9 6 15 17 11 25 -4 12 2 14 33 10 27 -3 33 -2 19 4 -11 5
-23 7 -27 4 -5 -2 -8 0 -8 6 0 5 9 13 20 16 11 4 17 11 14 17 -5 7 -2 8 6 3
10 -6 9 -11 -5 -22 -11 -7 -14 -13 -8 -13 16 0 36 27 29 39 -4 6 2 15 13 20
25 14 31 14 31 0 0 -5 -4 -8 -8 -5 -4 2 -14 1 -22 -5 -11 -6 -11 -9 -2 -9 10
0 10 -5 2 -21 -7 -11 -9 -23 -7 -26 3 -2 8 5 12 16 3 12 11 19 16 15 5 -3 8 0
7 8 -2 7 3 12 11 10 8 -2 11 3 8 13 -4 8 -2 16 3 16 6 1 14 2 19 3 5 0 12 4
16 8 13 13 40 0 37 -18z m-232 -294 c0 -5 -5 -10 -11 -10 -5 0 -7 5 -4 10 3 6
8 10 11 10 2 0 4 -4 4 -10z"/>
<path d="M3004 1868 c-3 -5 -9 -6 -13 -4 -3 3 -7 -3 -7 -13 0 -10 6 -18 12
-18 7 0 10 7 7 16 -3 11 0 10 13 -4 12 -15 15 -16 11 -4 -3 9 -1 21 4 26 6 6
4 10 -6 10 -9 0 -18 -4 -21 -9z"/>
<path d="M3090 1858 c0 -4 4 -8 9 -8 6 0 12 4 15 8 3 5 -1 9 -9 9 -8 0 -15 -4
-15 -9z"/>
<path d="M3068 1843 c6 -2 9 -10 6 -15 -4 -7 -2 -8 5 -4 13 9 5 26 -12 25 -9
0 -8 -2 1 -6z"/>
<path d="M3139 1833 c-13 -15 -12 -15 9 -4 23 12 28 21 13 21 -5 0 -15 -7 -22
-17z"/>
<path d="M3165 1800 c-3 -6 1 -7 9 -4 18 7 21 14 7 14 -6 0 -13 -4 -16 -10z"/>
<path d="M2847 1760 c3 -11 9 -23 14 -26 5 -3 6 3 2 12 -4 11 -3 15 5 10 6 -3
14 -1 18 6 4 7 4 10 -1 6 -4 -4 -16 -3 -25 2 -15 8 -17 6 -13 -10z"/>
<path d="M3235 1770 c-3 -6 1 -7 9 -4 18 7 21 14 7 14 -6 0 -13 -4 -16 -10z"/>
<path d="M2840 1726 c0 -2 8 -10 18 -17 15 -13 16 -12 3 4 -13 16 -21 21 -21
13z"/>
<path d="M2820 1696 c0 -2 7 -7 16 -10 8 -3 12 -2 9 4 -6 10 -25 14 -25 6z"/>
<path d="M2806 1671 c-3 -4 6 -8 20 -9 13 -1 24 0 24 2 0 7 -40 14 -44 7z"/>
<path d="M2815 1540 c-3 -5 -1 -10 4 -10 6 0 11 5 11 10 0 6 -2 10 -4 10 -3 0
-8 -4 -11 -10z"/>
<path d="M2836 1522 c-3 -5 1 -9 9 -9 8 0 12 4 9 9 -3 4 -7 8 -9 8 -2 0 -6 -4
-9 -8z"/>
<path d="M3672 2313 c-23 -20 -47 -93 -30 -93 6 0 7 -7 4 -16 -3 -8 -2 -13 2
-10 4 2 19 -4 32 -15 21 -16 22 -18 5 -13 -16 5 -17 4 -5 -4 8 -6 19 -7 25 -3
5 4 21 8 35 9 17 1 20 -2 11 -7 -9 -6 -5 -8 14 -8 15 0 22 3 16 7 -9 5 -7 16
6 38 10 18 21 32 26 32 11 0 4 -23 -13 -40 -9 -8 -10 -11 -3 -7 6 5 16 6 21 3
13 -8 8 45 -7 72 -7 12 -9 28 -5 35 4 6 4 9 0 5 -4 -3 -16 2 -27 13 -24 24
-80 25 -107 2z"/>
<path d="M7221 2287 c-6 -6 -11 -7 -11 -3 0 5 -11 -3 -25 -18 -23 -25 -39 -55
-65 -123 -7 -18 -17 -33 -22 -33 -5 0 -7 -4 -4 -9 7 -11 -33 -104 -49 -113 -8
-5 -11 -17 -7 -30 4 -16 2 -19 -8 -13 -8 5 -11 4 -7 -2 8 -13 -32 -113 -45
-113 -5 0 -7 -4 -4 -9 4 -7 -34 -104 -98 -246 -8 -16 -25 -55 -37 -85 -13 -30
-27 -57 -32 -58 -4 -2 -5 -8 -1 -13 3 -5 0 -9 -6 -9 -6 0 -8 -5 -5 -10 4 -6 2
-17 -4 -24 -6 -7 -15 -33 -19 -58 -8 -39 -6 -47 10 -57 10 -6 17 -15 14 -19
-3 -5 0 -14 6 -22 8 -12 9 -11 4 3 -5 15 -2 17 15 12 12 -4 30 0 45 9 18 12
29 14 43 6 30 -15 38 -12 14 5 -13 9 -20 22 -16 31 4 12 8 12 21 2 13 -11 14
-10 4 8 -8 16 -8 27 3 47 8 15 11 27 7 27 -3 0 -1 5 6 12 8 8 15 8 26 -1 10
-9 16 -9 21 -1 4 6 4 14 1 17 -3 4 -6 1 -6 -6 0 -7 -5 -9 -10 -6 -6 4 -8 10
-5 15 3 5 1 11 -5 15 -6 4 -8 11 -4 16 3 5 10 7 15 4 5 -4 9 -1 9 4 0 6 -6 11
-12 11 -7 1 -3 9 9 19 16 13 19 21 11 29 -9 9 -6 10 10 7 12 -2 22 0 22 4 0 4
6 8 14 8 8 0 12 -6 9 -14 -3 -8 -8 -11 -11 -9 -9 10 -31 -15 -26 -29 4 -10 14
-4 34 18 23 27 35 32 68 32 50 0 61 -10 36 -31 -18 -15 -17 -15 6 -1 14 9 24
21 22 29 -3 10 -1 10 9 1 10 -10 10 -15 0 -27 -10 -12 -9 -14 6 -12 12 2 17
10 15 24 -3 22 8 23 60 6 13 -4 18 -2 14 4 -7 12 20 10 31 -3 4 -4 2 -5 -6 0
-10 5 -12 4 -7 -4 4 -6 11 -9 16 -6 4 3 11 -1 14 -7 3 -7 4 -4 1 8 -5 18 -1
20 32 19 23 -1 37 -6 36 -13 -2 -6 4 -9 12 -6 8 4 13 10 10 14 -3 5 3 7 12 6
24 -4 23 -31 -1 -31 -10 0 -20 -8 -22 -18 -1 -9 2 -15 7 -11 5 3 7 10 3 15 -3
6 5 8 20 5 17 -3 24 -1 20 6 -4 6 1 8 12 6 11 -2 18 -10 17 -16 -2 -7 2 -12 8
-12 6 0 9 7 5 15 -3 8 -1 15 3 15 12 0 22 -30 14 -42 -3 -6 -1 -8 4 -5 11 7
28 -37 24 -62 -1 -7 2 -10 8 -6 7 3 11 -2 11 -14 0 -12 4 -21 8 -21 5 0 9 -6
9 -14 0 -23 25 -76 36 -76 6 0 19 -8 30 -18 15 -12 18 -13 12 -2 -8 13 -7 13
10 0 11 -9 16 -10 11 -2 -7 11 6 16 41 15 7 -1 10 3 7 9 -3 5 -1 14 4 21 7 8
6 24 -2 48 -7 20 -12 43 -10 53 1 9 -2 16 -8 16 -6 0 -5 6 2 15 11 13 10 14
-3 10 -17 -7 -33 27 -22 45 4 6 3 10 -2 9 -20 -4 -24 2 -12 18 8 9 9 14 2 10
-17 -11 -44 48 -29 64 8 9 8 10 -1 5 -7 -4 -17 3 -24 16 -10 20 -10 22 2 13 8
-5 7 -3 -3 7 -18 16 -25 34 -10 24 4 -2 8 6 8 19 0 13 -4 21 -8 19 -5 -3 -6
-10 -3 -15 4 -5 2 -9 -4 -9 -8 0 -34 60 -34 80 0 3 -7 11 -14 18 -7 8 -11 17
-8 22 3 5 1 11 -5 15 -6 4 -8 11 -4 16 3 5 10 6 16 3 7 -4 8 -2 4 4 -4 6 -14
8 -22 5 -14 -5 -15 -3 -5 14 8 16 7 24 -4 33 -8 7 -12 16 -9 21 3 5 -1 6 -9 3
-15 -5 -33 36 -28 65 1 7 -2 10 -8 6 -10 -5 -16 14 -12 38 0 4 -3 7 -8 7 -5 0
-12 7 -15 16 -4 10 -2 13 7 9 6 -4 4 0 -7 9 -10 8 -15 20 -10 27 5 8 3 10 -6
4 -9 -6 -10 -2 -5 16 4 13 4 21 0 17 -9 -9 -47 70 -40 82 3 4 -2 11 -11 14 -8
3 -13 10 -9 15 3 5 1 12 -5 16 -5 3 -10 16 -10 27 0 12 -3 18 -6 15 -4 -4 -15
3 -25 15 -11 11 -19 19 -19 16 0 -3 -15 -2 -34 2 -22 5 -39 3 -45 -3z m45
-213 c-3 -7 -1 -16 5 -20 16 -10 59 -115 52 -128 -3 -6 -3 -8 2 -4 7 7 90
-179 100 -226 3 -11 9 -24 15 -30 5 -5 10 -13 10 -17 0 -4 -83 -7 -185 -6
-105 1 -185 5 -185 10 0 5 -8 3 -17 -4 -12 -9 -11 -5 3 11 12 14 20 33 19 43
-2 10 1 14 8 10 6 -4 8 0 4 10 -8 22 10 32 31 16 13 -11 13 -9 -2 8 -15 19
-16 25 -6 38 7 8 9 15 6 15 -4 0 -4 5 -1 10 5 8 12 7 23 -2 12 -10 14 -10 8
-1 -17 29 -15 55 4 60 11 3 20 10 20 15 0 5 -4 7 -9 3 -14 -8 -5 29 13 58 9
13 13 27 9 32 -5 4 -2 5 5 1 11 -6 14 3 11 31 -1 14 36 20 50 9 11 -8 13 -8 7
2 -4 7 -2 12 4 12 6 0 8 5 5 10 -3 6 -11 10 -16 10 -6 0 -8 -4 -5 -8 2 -4 -4
-9 -15 -9 -10 -1 -19 2 -19 8 0 5 5 8 11 7 6 -2 14 3 17 11 3 10 0 11 -9 5
-11 -6 -12 -5 -2 8 7 8 10 18 6 22 -4 4 1 4 10 0 10 -4 16 -13 13 -20z m263
-228 c7 -8 8 -17 3 -20 -6 -3 -12 3 -15 14 -6 24 -4 25 12 6z m-26 -339 c-2
-4 -5 -7 -8 -7 -3 0 -9 0 -15 0 -5 0 -10 4 -10 9 0 5 8 8 18 7 9 -2 16 -6 15
-9z"/>
<path d="M7281 2004 c0 -11 3 -14 6 -6 3 7 2 16 -1 19 -3 4 -6 -2 -5 -13z"/>
<path d="M7236 1995 c4 -8 8 -15 10 -15 2 0 4 7 4 15 0 8 -4 15 -10 15 -5 0
-7 -7 -4 -15z"/>
<path d="M7215 1969 c-4 -12 -3 -25 2 -29 4 -5 8 4 9 21 1 34 -2 37 -11 8z"/>
<path d="M7290 1960 c0 -5 5 -10 11 -10 5 0 7 5 4 10 -3 6 -8 10 -11 10 -2 0
-4 -4 -4 -10z"/>
<path d="M7180 1920 c-7 -14 -7 -20 0 -20 5 0 10 7 10 16 0 9 5 12 12 8 7 -4
8 -3 4 4 -10 16 -14 15 -26 -8z"/>
<path d="M7158 1838 c6 -24 19 -31 28 -17 5 8 3 9 -6 4 -10 -6 -12 -3 -8 12 3
12 0 20 -7 20 -7 0 -10 -8 -7 -19z"/>
<path d="M7125 1780 c-3 -4 3 -14 13 -21 16 -13 16 -13 2 5 -14 17 -13 18 7
12 12 -4 24 -3 26 1 3 4 -6 9 -19 9 -13 1 -26 -2 -29 -6z"/>
<path d="M7100 1736 c0 -2 8 -10 18 -17 15 -13 16 -12 3 4 -13 16 -21 21 -21
13z"/>
<path d="M7100 1700 c0 -6 7 -10 15 -10 8 0 15 2 15 4 0 2 -7 6 -15 10 -8 3
-15 1 -15 -4z"/>
<path d="M7085 1670 c-2 -3 5 -6 15 -7 11 -1 22 2 24 5 3 4 -4 8 -15 8 -11 0
-22 -3 -24 -6z"/>
<path d="M847 2272 c-10 -11 -20 -37 -23 -58 -2 -21 -6 -49 -9 -61 -2 -13 -1
-23 3 -23 9 0 7 -94 -3 -109 -3 -6 -1 -11 5 -11 8 0 9 -7 5 -17 -8 -19 -8 -33
-1 -68 2 -11 -1 -26 -7 -32 -6 -9 -6 -13 2 -13 7 0 9 -5 6 -11 -10 -15 -11
-119 -2 -119 4 0 3 -9 -3 -20 -8 -14 -8 -20 0 -20 8 0 8 -6 0 -20 -8 -14 -8
-20 0 -20 8 0 8 -6 0 -20 -6 -11 -7 -20 -3 -20 4 0 7 -15 6 -32 -1 -18 -2 -33
-3 -33 -1 0 -3 -12 -4 -27 -1 -16 3 -28 9 -28 5 0 5 -4 -2 -8 -7 -5 -9 -13 -3
-21 4 -8 4 -24 0 -36 -5 -14 -4 -27 2 -33 6 -6 7 -16 1 -27 -5 -9 -7 -36 -3
-60 4 -27 3 -48 -4 -55 -8 -8 -6 -9 8 -4 15 6 17 3 12 -17 -3 -13 -3 -18 0
-11 8 18 24 15 24 -5 0 -14 2 -15 9 -5 11 17 12 18 37 4 14 -7 25 -7 35 0 11
8 10 9 -4 4 -11 -3 -16 -2 -12 4 3 6 15 10 25 10 10 0 22 4 25 10 4 6 -1 7
-12 3 -15 -6 -16 -4 -6 9 7 8 10 18 6 22 -4 4 1 4 12 0 18 -7 19 -6 6 10 -8
10 -15 26 -16 37 -1 15 1 16 12 7 20 -16 13 13 -7 30 -13 11 -11 12 10 8 14
-3 19 -3 12 0 -6 3 -9 11 -5 17 4 6 1 8 -8 5 -10 -4 -15 1 -15 13 0 14 3 16
15 6 10 -9 9 -2 -4 23 -18 34 -18 35 1 20 18 -15 18 -14 1 13 -10 15 -13 27
-7 27 6 0 13 -7 16 -15 4 -8 11 -12 16 -9 6 4 4 10 -6 16 -9 5 -13 14 -10 20
5 7 2 8 -5 3 -9 -5 -12 0 -10 16 2 13 0 29 -4 36 -4 6 -2 15 4 19 8 4 9 3 5
-4 -4 -7 -2 -12 3 -12 6 0 11 7 11 16 0 8 4 13 9 10 5 -3 14 0 20 7 8 10 7 14
-4 14 -8 0 -12 -3 -10 -7 2 -3 -6 -7 -18 -7 -21 -2 -21 -1 -3 12 10 8 23 12
27 9 5 -3 9 0 9 7 0 7 6 4 14 -6 12 -17 12 -21 -1 -30 -14 -10 -14 -12 1 -12
9 0 16 3 17 6 0 3 2 14 4 24 2 11 -1 15 -8 10 -7 -3 -9 -2 -4 2 9 11 57 13 51
3 -3 -4 0 -8 7 -8 8 0 8 -5 -2 -17 -12 -17 -12 -17 6 -1 17 16 20 16 49 -3 29
-19 29 -19 9 -1 -12 11 -19 22 -16 25 3 4 -4 5 -16 2 -11 -2 -21 0 -21 6 0 10
28 8 48 -4 7 -5 12 -3 12 5 0 9 3 9 10 -2 5 -8 10 -10 10 -5 0 6 8 1 16 -10
16 -20 16 -20 10 1 -6 18 -2 21 21 20 16 -1 34 -5 41 -9 7 -5 12 -3 12 5 0 10
2 10 9 -1 5 -8 16 -11 30 -6 13 4 21 2 21 -5 0 -6 -4 -9 -9 -5 -15 9 -25 -15
-12 -28 9 -9 11 -8 6 5 -5 14 -2 16 15 13 12 -2 29 -10 38 -17 12 -10 14 -10
8 0 -4 6 -2 12 3 12 6 0 11 -4 11 -10 0 -5 6 -10 14 -10 8 0 18 -5 22 -12 4
-7 3 -8 -4 -4 -7 4 -12 3 -12 -2 0 -5 8 -12 18 -14 21 -6 58 -98 39 -98 -8 0
-9 -2 -1 -8 6 -4 12 -41 14 -82 2 -41 4 -85 4 -97 1 -11 4 -20 7 -18 3 2 20
-5 37 -16 32 -19 60 -27 32 -9 -9 6 -10 10 -3 10 18 0 44 -30 37 -42 -4 -7 -2
-8 4 -4 9 5 9 13 1 27 -12 24 -9 29 19 32 11 0 18 5 16 9 -3 5 -11 5 -17 1 -9
-5 -9 -3 -1 8 6 8 10 26 9 41 -1 20 2 25 14 21 14 -5 14 -4 -1 12 -12 13 -14
24 -7 41 5 15 5 24 -1 24 -6 0 -10 5 -10 11 0 5 6 7 13 3 9 -6 9 -4 -1 8 -11
14 -10 18 4 26 15 8 15 9 0 15 -11 5 -15 3 -10 -5 4 -6 3 -8 -4 -4 -6 3 -10
24 -9 45 1 22 -1 37 -5 35 -3 -2 -9 0 -13 6 -3 5 -1 10 4 10 6 0 2 9 -9 20
-18 18 -25 34 -17 43 1 2 -16 19 -38 38 -22 19 -42 37 -43 42 -2 4 -7 5 -11 3
-4 -3 -8 1 -8 8 0 8 7 13 16 11 9 -1 16 -7 16 -13 0 -19 13 -24 32 -12 15 9
15 10 -7 4 -22 -6 -23 -5 -11 9 7 9 17 14 22 11 5 -3 6 3 2 13 -6 15 -4 16 8
6 8 -7 20 -8 28 -4 9 6 10 11 2 15 -6 4 -11 2 -11 -5 0 -10 -3 -10 -12 -1 -10
10 -16 8 -30 -10 -10 -13 -18 -18 -18 -13 0 18 17 36 36 39 10 2 19 9 19 17 0
8 12 29 25 47 14 19 25 37 25 40 0 4 4 13 8 20 5 6 5 17 1 24 -4 6 -3 8 3 5 6
-4 14 0 17 9 3 8 10 12 16 9 5 -3 10 -1 10 4 0 14 -13 14 -28 -1 -7 -7 -12 -8
-12 -2 0 5 5 15 12 22 9 9 9 12 0 12 -13 0 -12 27 2 49 7 10 6 12 -4 6 -10 -6
-12 -4 -7 8 3 10 2 17 -3 17 -6 0 -10 5 -10 11 0 5 6 7 13 3 6 -4 3 3 -8 16
l-20 23 25 -7 c20 -6 19 -4 -9 14 -18 11 -31 23 -28 26 7 8 -81 92 -104 99
-10 4 -19 11 -19 16 0 6 -4 7 -10 4 -5 -3 -16 -3 -22 2 -38 24 -119 32 -349
33 -229 1 -247 -1 -262 -18z m156 -119 c-7 -2 -13 -10 -13 -15 0 -6 3 -8 6 -5
4 3 16 1 28 -5 19 -10 20 -10 7 5 -15 19 -15 19 16 22 12 1 20 -1 17 -6 -2 -4
-12 -6 -22 -3 -15 5 -15 4 1 -6 14 -9 22 -9 34 2 17 14 101 19 109 6 3 -5 0
-15 -6 -23 -7 -9 -8 -15 -2 -15 9 0 26 28 24 41 0 3 18 5 40 4 31 -1 42 -6 44
-19 1 -10 6 -21 9 -24 4 -4 5 2 3 13 -2 17 3 20 35 20 20 0 37 -4 37 -8 0 -5
6 -7 14 -4 10 4 13 -1 12 -17 -2 -12 3 -23 9 -23 7 0 10 9 8 21 -4 17 -3 18 6
6 6 -8 11 -11 11 -6 0 5 7 3 15 -4 8 -7 14 -20 13 -29 -2 -10 3 -15 13 -13 20
3 39 -44 39 -94 0 -48 -29 -116 -47 -110 -8 3 -12 2 -8 -3 6 -10 -36 -43 -70
-55 -11 -4 -40 -11 -65 -16 -36 -7 -46 -5 -57 8 -12 15 -12 15 -7 1 5 -15 -10
-16 -139 -16 l-145 1 -1 54 c0 30 -2 57 -5 59 -3 3 -1 15 4 27 5 13 4 30 -2
40 -7 13 -7 17 0 12 6 -3 13 -2 17 4 3 5 -2 10 -12 11 -11 0 -13 3 -5 6 10 4
10 8 1 19 -9 11 -8 14 7 14 17 0 17 1 -2 15 -18 13 -18 14 9 9 15 -2 27 0 27
6 0 6 -4 9 -9 6 -4 -3 -17 2 -27 10 -15 13 -16 15 -2 10 9 -2 19 2 22 10 4 11
10 12 25 4 14 -7 22 -7 27 2 4 6 3 8 -4 4 -6 -3 -18 1 -26 10 -12 11 -16 12
-16 2 0 -10 -3 -9 -11 2 -9 13 -10 12 -5 -2 3 -10 2 -18 -3 -18 -5 0 -11 9
-14 20 -3 11 -2 18 3 15 4 -3 10 2 14 10 3 8 11 15 18 14 10 0 10 -2 1 -6z
m387 -533 c0 -5 -7 -7 -15 -4 -8 4 -15 8 -15 10 0 2 7 4 15 4 8 0 15 -4 15
-10z"/>
<path d="M1079 2125 c-9 -18 -9 -19 4 -3 17 22 31 11 15 -11 -7 -9 1 -5 16 9
22 19 28 21 23 8 -4 -10 -2 -18 3 -18 6 0 10 7 10 16 0 8 4 13 9 9 5 -3 12 -2
15 3 2 4 -16 8 -41 8 -35 0 -47 -5 -54 -21z"/>
<path d="M1216 2134 c-3 -7 2 -10 15 -7 22 6 26 20 4 20 -8 0 -16 -6 -19 -13z"/>
<path d="M1264 2139 c-3 -6 -2 -15 3 -20 5 -5 9 -1 9 11 0 23 -2 24 -12 9z"/>
<path d="M1313 2123 c0 -7 4 -13 8 -13 4 0 9 6 12 13 3 8 0 14 -7 14 -7 0 -13
-6 -13 -14z"/>
<path d="M1345 2121 c-3 -5 0 -13 6 -17 7 -4 9 -3 5 4 -3 5 0 13 6 15 9 4 10
6 1 6 -6 1 -14 -3 -18 -8z"/>
<path d="M1375 2109 c-4 -6 -5 -12 -2 -15 2 -3 7 2 10 11 7 17 1 20 -8 4z"/>
<path d="M1226 2098 c3 -5 10 -6 15 -3 13 9 11 12 -6 12 -8 0 -12 -4 -9 -9z"/>
<path d="M1433 2095 c0 -8 4 -12 9 -9 5 3 6 10 3 15 -9 13 -12 11 -12 -6z"/>
<path d="M1470 2040 c0 -5 5 -10 11 -10 5 0 7 5 4 10 -3 6 -8 10 -11 10 -2 0
-4 -4 -4 -10z"/>
<path d="M990 1960 c0 -5 5 -10 11 -10 5 0 7 5 4 10 -3 6 -8 10 -11 10 -2 0
-4 -4 -4 -10z"/>
<path d="M987 1919 c7 -7 15 -10 18 -7 3 3 -2 9 -12 12 -14 6 -15 5 -6 -5z"/>
<path d="M985 1883 c18 -38 21 -40 21 -13 0 10 -2 17 -5 15 -2 -3 -10 3 -18
13 -10 12 -9 8 2 -15z"/>
<path d="M980 1846 c0 -2 8 -10 18 -17 15 -13 16 -12 3 4 -13 16 -21 21 -21
13z"/>
<path d="M5272 2281 c1 -4 -3 -15 -7 -25 -5 -11 -3 -41 4 -70 7 -28 15 -66 18
-83 3 -18 9 -33 14 -33 5 0 9 -6 9 -13 0 -8 10 -43 21 -78 12 -35 22 -68 24
-74 1 -5 5 -18 9 -27 4 -9 9 -22 10 -30 2 -7 6 -21 11 -31 4 -10 2 -24 -6 -35
-12 -15 -12 -16 2 -4 14 11 19 5 35 -50 10 -35 18 -71 17 -80 0 -10 3 -15 8
-13 10 7 22 -52 13 -66 -4 -8 -3 -9 4 -5 11 7 13 3 16 -36 1 -7 6 -19 13 -25
6 -7 10 -24 9 -38 -2 -13 1 -22 5 -19 5 3 10 -2 10 -10 2 -21 3 -25 21 -66 9
-19 18 -46 20 -60 1 -14 8 -28 13 -32 6 -4 10 -13 10 -20 0 -7 8 -12 18 -10 9
2 17 -2 17 -8 0 -6 5 -8 10 -5 6 3 10 2 10 -3 0 -15 28 -23 36 -10 4 6 3 8 -4
4 -6 -3 -13 -2 -16 3 -7 11 13 9 33 -3 11 -7 13 -5 7 10 -4 10 -4 15 0 11 4
-4 17 4 29 18 16 16 30 22 46 19 24 -5 24 -5 2 5 -22 10 -23 24 -4 56 3 6 6
18 7 28 2 29 4 30 18 18 12 -10 13 -9 9 7 -2 11 0 23 6 26 5 4 8 13 5 21 -4 8
-11 12 -17 8 -6 -3 -7 -1 -3 5 4 7 14 12 22 12 8 0 14 5 14 11 0 5 -4 8 -8 5
-4 -2 -8 4 -8 14 0 18 1 18 20 2 19 -17 19 -17 0 13 -12 18 -14 26 -5 21 9 -6
12 -5 9 5 -3 8 4 20 16 27 21 13 21 13 -2 8 -23 -4 -23 -4 -7 14 10 11 14 24
9 31 -5 9 -1 11 14 7 13 -4 26 0 34 10 9 10 9 13 1 9 -18 -11 -25 10 -13 35
10 21 10 21 -3 6 -8 -10 -18 -18 -22 -18 -5 0 -1 8 7 18 9 9 14 25 13 35 -2
10 3 21 11 24 8 3 13 12 9 20 -3 10 -1 13 8 10 7 -3 13 3 13 14 0 15 -3 16
-16 6 -13 -10 -13 -10 -3 4 7 9 10 19 6 22 -3 4 2 9 11 13 9 3 16 10 16 16 0
5 -6 6 -12 2 -10 -6 -10 -4 0 7 6 7 12 23 12 36 0 13 4 23 8 23 10 0 9 -30 -1
-47 -4 -6 -3 -15 3 -18 6 -4 9 -1 8 7 -2 8 6 13 18 12 22 -1 27 17 9 33 -4 4
-5 3 -1 -4 8 -15 -10 -27 -19 -12 -4 6 0 18 9 27 15 15 18 15 27 2 9 -12 10
-12 5 3 -4 12 -2 17 6 14 7 -2 11 -13 10 -23 -2 -10 0 -16 4 -11 4 4 14 -16
22 -45 7 -29 15 -57 16 -63 2 -5 6 -18 10 -27 4 -9 4 -22 0 -29 -5 -8 -3 -9 6
-4 10 6 12 3 7 -14 -3 -13 -3 -20 1 -17 8 9 73 -195 68 -217 -2 -9 0 -15 4
-12 5 3 15 -14 21 -37 7 -24 13 -45 14 -48 1 -3 7 -17 13 -33 7 -15 14 -39 16
-53 3 -15 6 -27 8 -28 65 -45 101 -53 131 -28 11 10 17 9 27 -3 14 -17 30 -20
30 -4 0 5 -4 8 -9 5 -5 -3 -12 2 -15 11 -4 9 -1 20 6 25 7 4 9 8 4 8 -5 0 -4
6 1 13 6 6 16 30 23 52 7 22 22 48 34 58 16 15 17 18 4 13 -22 -7 -23 12 -2
42 8 12 13 22 10 22 -3 0 1 15 9 33 7 17 14 35 14 40 1 4 2 9 2 12 1 3 3 10 4
15 1 6 3 17 4 26 0 9 6 12 13 8 7 -5 9 0 6 14 -4 13 0 26 10 34 13 11 14 11 7
-1 -5 -10 -4 -12 4 -7 7 5 9 12 3 19 -15 19 -10 46 10 53 10 3 18 10 18 15 0
6 -4 7 -10 4 -5 -3 -10 -1 -10 4 0 6 4 11 9 11 5 0 8 8 6 18 -1 9 0 22 4 27 3
6 7 19 8 30 2 11 9 24 15 30 8 7 9 6 4 -2 -4 -7 -2 -13 5 -13 8 0 10 11 6 35
-3 20 -2 35 4 35 6 0 7 -6 4 -12 -9 -17 33 32 45 52 6 12 3 16 -13 17 -12 0
-16 -1 -9 -4 6 -3 12 -9 12 -14 0 -6 -5 -7 -10 -4 -6 4 -9 1 -8 -6 2 -6 -3
-14 -10 -16 -11 -4 -12 -1 -3 16 7 11 9 21 5 21 -3 0 -1 6 5 13 6 8 7 18 3 23
-4 4 0 3 10 -4 17 -14 35 -1 23 17 -3 6 2 14 11 19 15 8 15 10 0 15 -10 4 -14
3 -11 -2 3 -5 1 -12 -4 -16 -6 -3 -8 -13 -5 -23 5 -14 4 -14 -4 -3 -9 13 -7
31 7 56 6 11 12 33 13 53 1 12 9 15 43 13 l20 -1 -20 9 c-11 5 -23 7 -26 5 -3
-2 -6 3 -6 11 0 8 4 12 8 9 4 -2 7 8 5 23 -1 16 2 34 7 41 6 8 5 12 -2 12 -7
0 -9 5 -5 12 4 6 3 8 -3 5 -6 -4 -16 0 -23 8 -14 17 -103 18 -93 1 3 -4 2 -11
-3 -15 -9 -6 -32 -61 -39 -93 -12 -56 -42 -135 -55 -146 -11 -10 -11 -11 -1
-6 11 6 13 3 7 -12 -4 -10 -10 -31 -13 -46 -3 -16 -10 -25 -16 -21 -5 3 -7 2
-4 -4 7 -12 -53 -224 -62 -219 -3 2 -7 -12 -8 -32 -1 -19 -5 -38 -10 -41 -4
-3 -9 -19 -11 -36 -2 -16 -9 -33 -15 -37 -7 -4 -9 -8 -5 -8 5 0 -1 -22 -11
-49 -10 -28 -16 -52 -13 -55 3 -4 0 -6 -6 -6 -11 0 -35 70 -27 79 3 2 5 -2 5
-9 0 -7 2 -11 5 -8 8 8 -6 39 -15 33 -4 -3 -11 2 -14 11 -4 10 -2 13 7 8 9 -5
9 -4 0 6 -6 7 -9 19 -6 28 4 10 2 13 -5 8 -7 -4 -12 -3 -12 3 0 5 6 12 13 14
7 3 4 6 -7 6 -16 1 -17 3 -5 18 8 10 9 14 2 10 -15 -9 -24 6 -25 43 -1 17 -4
30 -8 30 -4 0 -11 16 -17 35 -8 26 -8 33 0 28 7 -3 3 3 -7 15 -11 12 -16 22
-11 22 4 0 3 6 -2 13 -6 6 -13 27 -17 46 -5 26 -3 32 7 25 7 -5 5 -2 -5 7 -26
25 -38 62 -26 83 8 14 7 17 -1 12 -6 -4 -11 -5 -11 -3 0 3 -7 21 -16 42 -11
27 -12 35 -2 29 7 -4 5 2 -6 14 -11 13 -17 31 -14 46 3 14 1 24 -5 23 -6 -1
-12 7 -14 18 -3 15 -2 16 5 7 7 -11 10 -11 15 2 4 9 3 15 -1 15 -22 -4 -33 3
-28 16 3 8 1 15 -5 15 -6 0 -8 7 -5 16 3 8 2 13 -3 10 -4 -3 -17 1 -27 9 -45
34 -116 6 -130 -50 -3 -14 -9 -23 -13 -20 -4 2 -7 -6 -6 -18 1 -12 -9 -53 -22
-92 -29 -82 -28 -81 -38 -122 -4 -18 -11 -31 -15 -28 -3 2 -6 -6 -5 -18 1 -12
-2 -29 -6 -37 -4 -8 -22 -62 -39 -120 -17 -58 -34 -112 -37 -120 -9 -21 -9
-21 -17 -62 -5 -21 -12 -38 -18 -38 -5 0 -7 -3 -5 -7 3 -5 1 -18 -4 -30 -6
-16 -13 -21 -26 -16 -17 6 -17 6 -1 -10 15 -15 15 -47 1 -47 -3 0 -3 6 0 14 3
8 1 16 -4 18 -6 2 -11 11 -13 20 -1 10 -5 21 -9 24 -4 4 -7 14 -7 23 0 12 6 9
20 -9 15 -18 18 -20 13 -6 -5 15 -3 17 8 11 8 -5 11 -5 6 1 -5 5 -14 9 -20 9
-7 1 -11 6 -9 13 1 7 -2 11 -7 10 -5 -2 -9 1 -9 6 0 5 -6 12 -13 17 -10 6 -10
11 2 25 13 16 12 17 -4 11 -13 -5 -17 -3 -14 5 2 7 -1 24 -8 38 -7 14 -11 33
-10 43 2 9 0 17 -5 17 -4 0 -10 9 -13 20 -3 13 -1 18 6 14 7 -3 4 1 -6 9 -10
9 -18 30 -19 50 -1 20 -5 34 -9 32 -4 -3 -10 7 -13 21 -5 18 -1 33 11 48 9 11
11 15 3 9 -21 -19 -32 -16 -20 6 15 29 12 37 -6 15 -15 -18 -15 -18 -9 9 3 15
1 27 -4 27 -10 0 -37 88 -33 108 2 6 -2 12 -9 12 -8 0 -8 4 1 15 11 13 10 14
-4 9 -9 -4 -16 -3 -15 2 4 19 -14 94 -22 94 -5 0 -9 7 -9 15 0 23 -44 46 -83
43 -20 -1 -35 -4 -35 -7z m718 -281 c0 -4 -6 -10 -13 -13 -7 -3 -13 3 -13 13
0 10 6 16 13 13 7 -3 13 -9 13 -13z m5 -30 c-3 -5 0 -10 7 -10 7 -1 0 -8 -17
-17 -35 -19 -40 -19 -40 4 0 9 8 17 18 19 11 1 21 5 25 8 9 10 14 7 7 -4z
m-125 -325 c11 -13 10 -14 -4 -9 -9 3 -16 10 -16 15 0 13 6 11 20 -6z m-70
-209 c0 -2 -7 -9 -15 -16 -13 -11 -14 -10 -9 4 5 14 24 23 24 12z"/>
<path d="M5953 1943 c0 -9 4 -10 14 -2 7 6 13 12 13 14 0 1 -6 2 -13 2 -8 0
-14 -6 -14 -14z"/>
<path d="M7934 2269 c-16 -17 -19 -37 -19 -127 0 -60 -4 -110 -10 -114 -7 -5
-6 -8 0 -8 6 0 11 -9 11 -20 0 -11 -4 -20 -9 -20 -4 0 -5 -5 -1 -12 10 -16 11
-68 1 -68 -4 0 -3 -8 2 -18 6 -11 6 -24 0 -35 -6 -9 -6 -17 -2 -17 4 0 8 -16
8 -35 0 -19 -3 -35 -7 -35 -4 0 -3 -13 2 -30 5 -17 5 -30 0 -30 -5 0 -5 -13 0
-30 5 -19 5 -30 -1 -30 -6 0 -8 -4 -5 -9 9 -14 10 -337 1 -352 -5 -8 -5 -11 0
-7 11 10 37 -11 29 -23 -3 -5 -2 -9 3 -8 22 4 43 -2 38 -11 -3 -5 -1 -10 4
-10 6 0 11 4 11 9 0 5 11 12 25 15 14 4 29 14 32 24 4 9 18 28 32 40 22 21 23
22 4 13 -29 -15 -30 -14 -28 12 1 14 8 21 18 21 9 -1 14 2 11 7 -3 5 -12 9
-21 9 -14 0 -14 2 0 23 8 12 21 21 27 19 6 -1 8 3 5 9 -5 8 -10 8 -18 0 -15
-15 -32 -14 -19 2 6 7 7 18 2 26 -10 18 -2 41 13 37 7 -1 9 -1 4 1 -4 3 -5 9
-2 14 4 5 -1 6 -10 3 -13 -5 -14 -2 -5 20 6 16 6 26 0 26 -5 0 -7 7 -4 15 4 8
10 12 15 9 5 -3 7 -10 4 -15 -4 -5 -2 -9 4 -9 5 0 9 9 8 19 0 11 -5 17 -9 15
-4 -3 -8 2 -8 10 0 9 6 16 13 17 6 0 2 5 -10 11 -13 6 -23 15 -23 20 0 11 7
10 30 -2 13 -7 21 -7 25 0 4 6 3 10 -2 9 -19 -3 -33 2 -33 12 0 5 4 8 9 5 13
-9 7 22 -7 36 -9 9 -12 9 -12 0 0 -7 5 -12 11 -12 5 0 7 -4 4 -10 -15 -24 -22
-6 -19 43 3 34 10 57 21 66 17 12 16 13 -4 6 -22 -6 -22 -6 -8 29 11 26 12 34
3 31 -10 -4 -13 15 -13 75 0 58 3 79 12 76 8 -3 10 1 6 12 -6 14 -4 15 9 4 13
-10 18 -10 24 -1 4 7 3 9 -4 5 -6 -3 -14 -2 -17 4 -5 7 -11 8 -19 1 -8 -7 -11
0 -12 25 0 24 3 33 12 30 8 -3 16 0 20 6 4 7 3 8 -4 4 -7 -4 -12 -2 -12 4 0 6
-4 9 -8 6 -10 -6 -9 65 2 83 5 8 4 16 -4 21 -10 6 -9 9 0 15 10 6 9 11 -5 22
-11 7 -15 13 -9 13 5 1 -2 7 -16 15 -36 21 -74 18 -96 -6z m129 -664 c-3 -9
-8 -14 -10 -11 -3 3 -2 9 2 15 9 16 15 13 8 -4z"/>
<path d="M8369 2271 c-23 -18 -25 -26 -24 -98 0 -43 -3 -86 -7 -95 -5 -10 -5
-18 -1 -18 10 0 9 -92 -1 -108 -4 -7 -3 -12 2 -12 5 0 9 -7 9 -15 0 -8 -4 -15
-8 -15 -5 0 -4 -12 1 -26 7 -17 7 -32 0 -45 -6 -10 -7 -19 -2 -19 5 0 9 -7 9
-15 0 -8 -4 -15 -8 -15 -5 0 -5 -10 0 -22 9 -27 8 -69 -3 -86 -4 -7 -4 -12 1
-12 4 0 8 -36 8 -80 0 -44 -4 -80 -8 -80 -4 0 -3 -8 2 -18 5 -10 6 -24 1 -32
-4 -7 -5 -23 0 -35 5 -12 4 -28 0 -36 -5 -8 -5 -16 2 -20 7 -4 7 -12 1 -24
-12 -20 3 -70 27 -95 23 -23 71 -15 98 15 12 14 22 23 22 19 0 -4 -7 -15 -16
-25 -10 -11 -12 -19 -4 -24 6 -4 9 -1 8 7 -2 7 2 12 8 11 13 -2 15 28 1 45 -6
8 -6 12 3 12 10 0 10 3 0 15 -11 13 -10 14 5 9 16 -7 16 -5 -1 22 -11 15 -14
25 -9 22 6 -4 17 3 25 15 12 20 12 21 -3 9 -9 -8 -18 -9 -21 -4 -3 6 1 13 10
16 15 6 15 8 0 31 -15 23 -15 25 1 25 14 0 15 2 4 9 -9 6 -11 18 -7 36 4 15 3
24 -2 21 -5 -3 -9 1 -9 9 0 8 4 12 8 10 9 -6 17 16 12 33 -3 6 -9 10 -13 7 -5
-3 -5 8 0 24 5 19 4 33 -3 41 -10 10 -7 10 12 0 19 -10 21 -14 10 -21 -8 -5
-9 -9 -3 -9 21 0 24 14 7 32 -9 10 -13 18 -8 18 4 0 3 6 -3 13 -8 10 -6 13 11
14 14 2 17 -1 9 -6 -15 -9 7 -43 32 -47 20 -3 20 3 1 22 -11 11 -15 12 -15 3
0 -7 -3 -10 -6 -6 -3 3 -2 13 4 22 8 16 10 16 15 1 4 -10 12 -13 23 -9 11 4
15 2 11 -4 -8 -12 18 -12 29 0 4 4 14 1 23 -5 13 -10 14 -10 4 2 -7 8 -13 17
-13 20 0 9 93 6 108 -3 6 -5 12 -4 12 0 0 12 96 10 107 -1 5 -6 2 -6 -7 -1 -8
5 -12 5 -8 0 4 -4 3 -14 -3 -21 -7 -9 -6 -14 3 -20 7 -4 10 -4 6 1 -4 4 -3 14
3 22 9 10 15 11 28 1 13 -10 14 -10 4 2 -21 23 -16 26 41 25 43 0 52 -2 44
-13 -8 -10 -7 -11 7 -6 13 5 16 4 11 -4 -4 -7 -2 -12 4 -12 7 0 9 8 5 19 -5
16 -1 19 15 18 11 -1 20 -5 20 -10 0 -4 3 -6 8 -3 4 2 8 -9 8 -25 1 -19 -2
-27 -10 -22 -6 3 -6 0 2 -8 6 -7 12 -29 12 -49 0 -20 -6 -42 -12 -49 -10 -11
-10 -12 -1 -7 17 9 16 -133 -1 -153 -8 -12 -8 -13 2 -7 9 5 12 -7 12 -48 0
-33 4 -56 11 -56 5 0 8 -4 5 -9 -11 -18 74 -35 87 -17 5 6 7 2 4 -12 -3 -12
-1 -20 4 -16 5 3 9 14 9 25 0 10 9 27 20 36 11 10 20 22 20 28 0 5 -5 3 -10
-5 -8 -12 -10 -12 -10 -1 0 8 8 20 18 27 12 10 13 13 2 9 -11 -4 -16 1 -17 15
-1 11 3 20 8 20 6 0 7 -5 3 -12 -4 -7 -3 -8 4 -4 6 4 9 13 6 21 -4 8 -10 12
-15 9 -5 -3 -9 0 -9 5 0 6 6 11 13 11 8 0 8 3 2 8 -13 8 -13 22 -1 41 6 10 5
12 -2 7 -7 -4 -12 -2 -12 5 0 6 8 9 20 6 11 -3 18 -1 14 4 -3 5 -11 9 -18 9
-18 0 -17 120 1 138 17 17 16 27 -2 46 -18 18 -20 30 -2 20 9 -6 9 -4 1 7 -12
15 -15 51 -4 44 4 -2 12 7 18 20 9 20 9 23 -3 18 -8 -3 -12 -9 -9 -14 3 -5 1
-9 -4 -9 -5 0 -8 41 -8 90 0 50 3 90 7 90 4 0 12 14 18 30 5 17 7 29 3 26 -5
-3 -14 0 -22 5 -12 8 -12 12 -2 16 6 2 12 9 12 14 0 6 -4 8 -8 5 -11 -7 -9
105 2 123 6 10 6 12 -2 7 -7 -4 -12 -2 -12 3 0 10 14 15 33 12 4 0 7 4 7 10 0
6 -9 8 -20 4 -23 -7 -26 4 -7 24 10 11 10 13 0 7 -12 -7 -19 20 -13 49 1 5 -1
7 -5 3 -4 -4 -14 -1 -22 7 -21 21 -66 18 -91 -5 -19 -18 -22 -32 -23 -103 -1
-45 0 -92 1 -105 1 -13 -4 -30 -12 -39 -7 -9 -8 -14 -2 -10 16 9 17 -75 2 -85
-10 -6 -10 -8 0 -8 6 0 12 -11 12 -24 0 -13 -6 -27 -12 -29 -10 -4 -10 -6 0
-6 6 -1 12 -5 12 -10 0 -13 -559 -11 -567 2 -3 6 -1 7 4 4 6 -4 14 0 17 9 3 8
2 13 -3 10 -5 -3 -12 1 -15 10 -5 12 -1 14 17 9 15 -4 18 -3 8 3 -16 12 3 27
21 16 6 -4 8 -3 4 4 -8 14 -47 11 -39 -3 4 -5 2 -7 -2 -2 -5 4 -9 16 -10 27
-1 15 1 17 12 8 11 -9 12 -7 6 8 -6 17 -5 18 13 4 17 -14 18 -14 6 2 -8 10
-18 16 -24 15 -5 -1 -10 28 -11 66 -2 39 2 66 7 64 5 -2 12 -9 14 -17 3 -8 0
-10 -9 -5 -8 5 -10 4 -6 0 4 -5 14 -10 22 -11 12 -2 13 2 3 19 -7 12 -11 26
-10 31 2 5 -3 6 -10 4 -10 -4 -13 9 -14 48 0 29 3 51 8 48 14 -9 9 2 -12 26
-11 12 -18 26 -15 29 2 4 -13 8 -34 9 -25 2 -46 -4 -62 -17z m841 -305 c0 -8
-4 -17 -9 -21 -6 -3 -9 4 -8 15 1 23 17 28 17 6z m-592 -265 c2 -1 0 -6 -3
-11 -5 -8 -11 -7 -20 0 -8 7 -20 8 -26 4 -8 -4 -9 -3 -5 4 6 10 22 10 54 3z
m585 -72 c-9 -9 -12 -7 -10 9 1 14 5 18 11 12 7 -7 6 -14 -1 -21z"/>
<path d="M8494 2198 c-4 -7 -4 -10 1 -6 4 4 15 2 24 -5 14 -11 14 -10 2 6 -16
20 -18 21 -27 5z"/>
<path d="M3425 2189 c-4 -6 -5 -12 -2 -15 2 -3 7 2 10 11 7 17 1 20 -8 4z"/>
<path d="M5430 2179 c0 -5 5 -7 10 -4 6 3 10 8 10 11 0 2 -4 4 -10 4 -5 0 -10
-5 -10 -11z"/>
<path d="M3446 2158 c3 -5 10 -6 15 -3 13 9 11 12 -6 12 -8 0 -12 -4 -9 -9z"/>
<path d="M3805 2160 c3 -5 8 -10 11 -10 2 0 4 5 4 10 0 6 -5 10 -11 10 -5 0
-7 -4 -4 -10z"/>
<path d="M5440 2160 c-9 -6 -10 -10 -3 -10 6 0 15 5 18 10 8 12 4 12 -15 0z"/>
<path d="M8510 2150 c6 -11 12 -20 14 -20 2 0 2 9 -1 20 -3 11 -9 20 -15 20
-5 0 -4 -9 2 -20z"/>
<path d="M1636 2142 c-3 -5 1 -9 9 -9 8 0 12 4 9 9 -3 4 -7 8 -9 8 -2 0 -6 -4
-9 -8z"/>
<path d="M3715 2140 c3 -5 8 -10 11 -10 2 0 4 5 4 10 0 6 -5 10 -11 10 -5 0
-7 -4 -4 -10z"/>
<path d="M7410 2140 c-9 -6 -10 -10 -3 -10 6 0 15 5 18 10 8 12 4 12 -15 0z"/>
<path d="M8060 2138 c0 -4 9 -7 20 -5 29 5 33 13 5 13 -14 0 -25 -4 -25 -8z"/>
<path d="M6695 2120 c3 -5 8 -10 11 -10 2 0 4 5 4 10 0 6 -5 10 -11 10 -5 0
-7 -4 -4 -10z"/>
<path d="M6675 2100 c-3 -5 -1 -10 5 -10 6 0 8 -5 4 -12 -4 -7 -3 -8 4 -4 6 4
9 13 5 21 -6 18 -10 19 -18 5z"/>
<path d="M9205 2100 c-3 -6 1 -7 9 -4 18 7 21 14 7 14 -6 0 -13 -4 -16 -10z"/>
<path d="M3430 2085 c-7 -9 -8 -15 -2 -15 5 0 12 7 16 15 3 8 4 15 2 15 -2 0
-9 -7 -16 -15z"/>
<path d="M8060 2060 c0 -5 5 -10 11 -10 5 0 7 5 4 10 -3 6 -8 10 -11 10 -2 0
-4 -4 -4 -10z"/>
<path d="M9214 2059 c-3 -6 -1 -16 5 -22 9 -9 10 -7 5 8 -7 18 -6 19 12 5 18
-14 18 -14 5 3 -16 20 -18 20 -27 6z"/>
<path d="M8506 2035 c20 -30 20 -30 20 -6 0 11 -4 17 -8 15 -4 -3 -8 0 -8 5 0
6 -5 11 -10 11 -6 0 -3 -11 6 -25z"/>
<path d="M2074 2021 c-6 -7 -44 -13 -81 -15 -17 0 -29 -4 -26 -8 2 -5 -3 -8
-11 -8 -28 0 -84 -32 -93 -54 -13 -30 -5 -64 18 -77 11 -5 17 -15 13 -20 -3
-6 4 -5 15 3 19 12 24 10 40 -11 14 -18 20 -21 26 -11 5 8 4 11 -2 7 -6 -4
-14 0 -17 9 -9 24 -7 27 10 14 8 -8 14 -9 13 -4 -4 21 2 24 23 13 17 -9 20 -9
16 3 -7 18 55 19 73 1 8 -8 18 -9 29 -3 13 7 22 5 30 -5 7 -8 17 -15 23 -15 6
0 2 7 -9 16 -16 13 -16 15 -2 10 10 -3 20 -1 23 3 6 10 -56 8 -72 -2 -6 -4
-13 -1 -16 6 -3 8 9 12 42 11 25 -1 49 -3 54 -4 4 -1 12 -4 17 -5 6 -1 13 -4
18 -5 4 -2 12 -4 18 -4 11 -1 74 -63 75 -74 0 -4 2 -26 5 -49 l6 -43 -126 2
c-69 1 -129 -2 -133 -5 -3 -4 -13 -1 -21 6 -13 9 -14 9 -8 0 5 -9 0 -13 -18
-13 -34 0 -105 -32 -144 -65 -37 -31 -77 -101 -73 -127 1 -10 -4 -18 -11 -18
-11 0 -10 -2 0 -9 8 -4 14 -12 14 -16 0 -4 -6 -12 -14 -16 -10 -7 -10 -9 0 -9
7 0 12 -13 12 -29 0 -17 5 -33 10 -36 6 -3 10 -14 10 -23 1 -9 18 -30 39 -47
21 -16 36 -34 33 -39 -3 -5 2 -6 12 -3 14 6 16 3 11 -16 -7 -22 -7 -22 10 -2
16 20 16 20 12 0 -3 -15 1 -21 14 -21 14 0 16 3 6 15 -10 12 -9 13 11 2 12 -6
27 -9 34 -5 6 4 9 1 6 -7 -3 -8 -12 -13 -19 -11 -8 2 -10 0 -6 -4 12 -12 38
-14 30 -1 -4 6 0 8 10 4 9 -3 19 -2 22 3 12 19 22 9 20 -20 -1 -16 2 -27 7
-24 5 4 7 12 4 20 -9 24 4 42 30 39 13 -1 27 2 30 7 3 5 12 7 19 4 8 -3 16 0
18 7 2 7 4 0 4 -15 0 -15 -3 -25 -8 -23 -4 3 -10 1 -13 -4 -4 -5 2 -8 11 -6
10 1 17 10 17 19 -1 9 3 15 10 13 6 -2 10 -13 8 -23 -2 -16 -1 -16 7 -4 7 10
5 20 -6 32 -15 16 -11 22 10 19 4 0 7 3 7 9 0 5 7 7 15 3 10 -3 27 8 49 33 22
25 33 32 33 21 0 -9 -4 -14 -9 -11 -18 11 -6 -8 21 -35 15 -15 31 -34 34 -42
4 -9 6 -10 6 -1 1 6 12 12 26 12 14 0 25 -6 25 -12 1 -7 8 -1 16 15 14 25 24
31 49 28 6 -1 1 5 -9 14 -11 8 -17 18 -13 21 4 4 12 2 20 -4 9 -8 17 -8 27 0
12 8 12 9 -3 4 -11 -3 -20 0 -23 9 -4 8 -9 13 -13 10 -4 -2 -8 3 -8 11 0 9 6
13 16 9 12 -5 11 -2 -3 14 -17 19 -7 39 13 27 5 -4 8 2 6 11 -2 10 -4 21 -4
26 -1 4 -7 7 -14 7 -20 0 -17 29 3 35 9 3 17 12 17 20 0 8 -5 11 -10 8 -6 -4
-8 0 -4 10 7 19 -1 49 -12 42 -4 -2 -8 2 -8 10 0 18 9 19 26 3 11 -11 11 -9 0
9 -7 12 -16 20 -20 17 -9 -5 -6 17 4 33 4 6 1 14 -5 16 -10 4 -10 6 0 6 6 1
12 6 12 12 0 5 -4 8 -8 5 -4 -2 -8 6 -8 20 0 13 4 24 8 24 4 0 8 5 8 11 0 5
-4 8 -8 5 -12 -7 -11 26 1 42 6 8 6 12 -2 12 -6 0 -11 11 -11 24 0 14 -4 28
-10 31 -5 3 -10 13 -10 21 0 10 5 12 13 7 6 -4 -5 10 -25 31 -21 21 -35 44
-31 50 3 6 3 8 -1 4 -11 -9 -46 23 -39 35 3 6 2 7 -4 4 -6 -4 -28 2 -51 13
-22 11 -57 22 -78 25 -50 8 -154 11 -160 6z m59 -451 c16 0 18 -3 9 -12 -15
-15 -15 -28 -1 -28 5 0 8 4 4 9 -3 5 0 13 6 17 9 5 7 11 -6 21 -11 7 -14 13
-8 13 5 0 18 -9 27 -19 21 -24 57 -35 49 -15 -2 7 -11 10 -18 8 -16 -6 -29 12
-15 21 5 3 10 1 10 -5 0 -6 5 -8 12 -4 20 12 48 12 40 0 -10 -17 -11 -37 -1
-30 5 3 7 9 5 13 -3 4 4 13 16 20 11 7 18 9 15 4 -3 -4 5 -16 18 -25 22 -17
23 -17 20 0 -1 9 -8 16 -14 15 -6 -2 -11 1 -11 6 0 6 8 9 18 8 14 -1 18 -12
20 -62 3 -55 0 -63 -25 -87 -35 -33 -102 -70 -113 -63 -4 3 -10 0 -12 -6 -2
-6 -25 -12 -51 -14 -36 -3 -46 -1 -41 8 6 9 4 9 -8 -1 -12 -10 -21 -10 -42 -1
-14 7 -23 16 -19 22 3 6 1 7 -5 4 -15 -10 -39 1 -47 21 -16 37 -16 85 0 102 8
9 12 20 8 25 -5 4 -2 5 5 1 6 -4 12 -2 12 3 0 18 18 13 42 -11 15 -15 20 -17
15 -5 -3 9 -2 19 3 22 6 4 10 0 10 -7 0 -10 2 -10 9 1 5 7 14 10 20 7 6 -4 8
-12 5 -18 -4 -7 -2 -8 4 -4 9 5 8 12 -1 26 -12 21 -27 26 -27 11 0 -6 -9 -8
-20 -6 -13 3 -18 0 -14 -7 5 -7 2 -8 -5 -3 -19 11 0 25 37 28 18 1 32 7 33 12
0 6 3 4 6 -2 2 -7 14 -13 26 -13z m357 -50 c0 -5 -4 -10 -10 -10 -5 0 -10 5
-10 10 0 6 5 10 10 10 6 0 10 -4 10 -10z m0 -41 c0 -5 -4 -9 -8 -9 -5 0 -9 7
-9 15 0 8 4 12 9 9 4 -3 8 -9 8 -15z m5 -69 c3 -5 2 -10 -4 -10 -5 0 -13 5
-16 10 -3 6 -2 10 4 10 5 0 13 -4 16 -10z m-445 -190 c0 -5 -2 -10 -4 -10 -3
0 -8 5 -11 10 -3 6 -1 10 4 10 6 0 11 -4 11 -10z"/>
<path d="M2275 1540 c-3 -5 -1 -10 4 -10 6 0 11 5 11 10 0 6 -2 10 -4 10 -3 0
-8 -4 -11 -10z"/>
<path d="M1984 1519 c-22 -25 -26 -83 -7 -106 13 -17 13 -17 5 2 -17 37 -2 92
21 79 7 -4 9 -4 5 1 -4 4 -3 14 3 21 18 21 -7 25 -27 3z m26 8 c0 -2 -10 -12
-22 -23 l-23 -19 19 23 c18 21 26 27 26 19z"/>
<path d="M1990 1471 c0 -6 4 -13 10 -16 6 -3 7 1 4 9 -7 18 -14 21 -14 7z"/>
<path d="M4287 2018 c-1 -3 -15 -8 -32 -11 -37 -5 -101 -33 -110 -48 -4 -5
-14 -8 -22 -5 -8 3 -12 2 -9 -2 3 -5 -8 -21 -25 -36 -16 -15 -29 -32 -29 -37
0 -6 -6 -7 -12 -3 -7 4 -10 4 -6 -1 4 -4 -1 -22 -11 -39 -21 -34 -39 -87 -44
-128 -1 -15 -6 -30 -10 -34 -4 -4 -2 -13 4 -21 8 -9 8 -13 1 -13 -11 0 -9 -31
3 -50 3 -6 1 -10 -5 -10 -7 0 -8 -6 0 -19 5 -11 10 -29 10 -41 0 -11 8 -38 18
-59 10 -21 18 -45 16 -54 -1 -10 2 -15 6 -12 5 3 14 -5 21 -17 15 -29 76 -88
90 -88 5 0 7 -4 4 -10 -3 -5 3 -10 14 -10 19 0 26 -10 22 -32 0 -4 6 -5 15 -1
13 5 13 7 2 14 -9 6 -9 9 -1 9 6 0 15 -5 18 -10 4 -6 11 -7 17 -4 7 4 8 2 4
-5 -5 -8 2 -10 26 -7 18 3 27 3 21 0 -7 -3 -13 -10 -13 -15 0 -6 6 -7 12 -3 7
5 47 8 88 9 41 1 82 5 90 10 12 7 13 6 3 -6 -13 -16 -1 -39 21 -39 5 0 1 7
-10 15 -17 13 -16 14 21 10 31 -4 36 -2 22 6 -9 5 -22 7 -27 4 -6 -3 -10 -2
-10 3 0 5 10 12 23 16 12 3 24 6 27 7 3 1 17 10 33 21 15 11 27 16 27 13 0 -4
7 1 16 9 8 9 21 16 27 16 7 0 4 -7 -5 -14 -10 -7 -18 -17 -18 -21 0 -5 9 0 20
10 12 10 18 25 15 33 -3 10 0 12 10 8 8 -3 15 -1 15 4 0 6 -6 10 -12 10 -7 0
-2 7 10 16 12 8 19 20 16 26 -4 7 -2 8 4 4 11 -6 17 6 13 27 -1 4 6 10 14 13
8 3 12 10 9 15 -8 13 10 11 26 -3 8 -7 6 -3 -5 10 -14 17 -16 25 -7 34 9 9 12
8 12 -4 0 -9 7 -19 16 -22 11 -4 10 2 -6 24 -17 24 -20 36 -13 58 5 15 9 39 8
54 -1 21 2 25 12 16 10 -8 12 -7 7 6 -3 9 -10 16 -14 16 -10 0 -8 20 4 39 6
10 5 12 -2 7 -7 -4 -12 -1 -12 8 0 9 6 13 14 10 8 -3 17 -1 21 5 4 7 -1 8 -12
4 -15 -6 -16 -4 -6 8 10 13 10 16 -2 16 -8 0 -12 -4 -9 -9 3 -4 0 -8 -5 -8
-14 0 -14 16 1 43 11 21 10 21 -8 7 -10 -8 -16 -11 -12 -6 4 5 3 18 -3 29 -9
15 -8 18 3 12 7 -3 5 0 -5 8 -14 11 -15 16 -5 20 8 4 7 6 -4 6 -10 1 -18 6
-18 11 0 17 -4 22 -53 70 -27 26 -65 56 -85 65 -20 10 -44 21 -53 26 -34 16
-217 30 -222 17z m126 -128 c18 -6 23 -8 44 -15 14 -5 20 -13 16 -23 -4 -15
-3 -15 9 -2 11 14 17 12 48 -18 19 -19 30 -32 23 -28 -6 3 -15 1 -19 -5 -4 -7
-3 -9 4 -5 12 7 51 -30 53 -51 3 -27 4 -32 12 -39 13 -13 8 -134 -5 -134 -9 0
-10 -3 -2 -8 13 -9 -2 -75 -16 -67 -5 3 -7 0 -5 -7 8 -19 -64 -101 -82 -94 -8
3 -12 2 -8 -3 10 -17 -94 -44 -142 -37 -73 10 -152 53 -138 76 4 6 -1 7 -12 3
-10 -3 -15 -2 -11 2 5 5 -1 15 -13 23 -17 12 -18 16 -7 30 11 14 10 15 -6 9
-14 -6 -17 -4 -12 8 3 8 1 15 -4 15 -5 0 -8 9 -7 19 0 11 6 17 12 15 5 -3 2 1
-8 9 -17 14 -17 15 0 22 10 5 21 8 25 7 4 -1 5 5 1 14 -5 15 -7 15 -15 0 -14
-25 -24 -19 -24 14 0 17 4 30 8 30 5 0 7 -10 3 -22 -5 -20 -4 -21 5 -5 6 9 9
21 5 26 -3 5 0 13 6 16 5 4 8 14 5 22 -4 9 -1 21 5 29 7 9 7 18 -1 33 -8 15
-8 21 0 21 6 0 9 4 6 9 -7 10 58 76 76 76 7 1 12 6 10 13 -1 9 5 8 21 -3 13
-8 27 -12 30 -8 4 3 7 1 7 -7 0 -10 3 -10 15 0 12 10 13 16 4 27 -10 11 -8 12
6 7 11 -4 16 -3 13 2 -6 8 44 11 65 4z m-114 -12 c4 6 11 5 19 -4 11 -12 9
-13 -10 -11 -12 2 -23 9 -24 16 -2 8 -1 8 3 0 3 -7 8 -8 12 -1z m-149 -159
c-6 -11 -8 -24 -5 -29 3 -6 3 -15 -1 -21 -5 -8 -8 -8 -14 0 -8 14 11 81 22 75
5 -3 3 -14 -2 -25z"/>
<path d="M4362 1881 c-11 -6 -9 -9 6 -13 11 -3 26 -1 33 6 9 8 11 7 6 -5 -3
-10 1 -15 11 -14 17 1 30 20 15 20 -5 0 -14 4 -22 9 -8 5 -16 4 -21 -4 -5 -8
-9 -9 -11 -1 -2 6 -10 7 -17 2z"/>
<path d="M4255 1850 c-4 -6 -10 -8 -14 -5 -12 7 -66 -57 -66 -79 0 -26 19 -31
36 -9 13 16 12 17 -4 4 -9 -8 -21 -11 -24 -7 -4 4 -2 11 6 15 7 5 12 11 12 15
-3 19 0 27 8 21 5 -3 13 0 16 6 4 5 13 8 21 5 9 -3 11 0 7 11 -4 10 -2 14 5 9
6 -3 13 -2 16 3 4 5 2 12 -3 15 -5 4 -12 2 -16 -4z m-15 -14 c0 -2 -8 -10 -17
-17 -16 -13 -17 -12 -4 4 13 16 21 21 21 13z"/>
<path d="M4350 1856 c0 -3 9 -10 20 -16 11 -6 20 -8 20 -6 0 3 -9 10 -20 16
-11 6 -20 8 -20 6z"/>
<path d="M4490 1840 c0 -5 5 -10 11 -10 5 0 7 5 4 10 -3 6 -8 10 -11 10 -2 0
-4 -4 -4 -10z"/>
<path d="M4280 1820 c-8 -5 -10 -10 -5 -10 6 0 17 5 25 10 8 5 11 10 5 10 -5
0 -17 -5 -25 -10z"/>
<path d="M4170 1699 c0 -5 5 -7 10 -4 6 3 10 8 10 11 0 2 -4 4 -10 4 -5 0 -10
-5 -10 -11z"/>
<path d="M4175 1480 c-3 -5 -1 -10 4 -10 6 0 11 5 11 10 0 6 -2 10 -4 10 -3 0
-8 -4 -11 -10z"/>
<path d="M4240 1420 c-9 -6 -10 -10 -3 -10 6 0 15 5 18 10 8 12 4 12 -15 0z"/>
<path d="M3431 2007 c-8 -10 -7 -14 2 -14 8 0 14 6 14 14 0 7 -1 13 -2 13 -2
0 -8 -6 -14 -13z"/>
<path d="M7873 2005 c0 -8 4 -12 9 -9 5 3 6 10 3 15 -9 13 -12 11 -12 -6z"/>
<path d="M3674 1989 c-16 -18 -19 -40 -22 -153 -1 -72 -4 -139 -6 -148 -2 -9
1 -19 8 -22 7 -3 6 -8 -4 -15 -8 -6 -10 -11 -5 -11 6 0 9 -69 8 -190 l-1 -189
34 -11 c22 -8 32 -16 27 -23 -5 -8 -2 -8 9 0 8 7 18 10 21 6 7 -7 47 34 47 49
0 4 5 8 11 8 8 0 8 -4 0 -14 -8 -10 -9 -16 -1 -21 6 -4 9 -1 8 7 -2 7 4 12 12
10 9 -1 5 7 -10 19 -23 20 -23 22 -4 17 12 -3 21 0 21 7 0 7 -7 12 -15 11 -10
-1 -16 9 -17 26 -1 15 2 25 7 22 4 -3 6 -9 3 -14 -3 -4 1 -10 8 -13 7 -3 13 3
13 14 0 10 -2 16 -4 14 -3 -2 -11 3 -19 11 -18 18 -9 32 10 16 10 -9 14 -8 14
3 0 8 -2 13 -5 11 -2 -3 -10 1 -17 7 -10 9 -10 15 -1 26 9 12 8 13 -3 6 -10
-6 -12 -4 -7 4 5 7 14 10 20 8 7 -3 13 1 13 8 0 7 -7 12 -16 11 -13 -1 -16 11
-15 69 0 56 3 70 15 69 9 -1 16 4 16 11 0 7 -7 12 -16 11 -13 -1 -16 11 -15
69 0 56 3 70 15 69 9 -1 16 4 16 11 0 7 -7 12 -16 11 -21 -1 -23 53 -4 76 13
14 12 17 -3 26 -11 6 -13 12 -5 16 7 5 6 14 -5 32 -9 13 -13 24 -8 24 4 0 -1
7 -12 15 -28 21 -78 19 -100 -6z"/>
<path d="M8496 1993 c-6 -14 -5 -15 5 -6 7 7 10 15 7 18 -3 3 -9 -2 -12 -12z"/>
<path d="M8065 1981 c-6 -11 13 -26 22 -17 4 3 1 6 -6 6 -7 0 -9 5 -6 10 3 6
4 10 1 10 -3 0 -7 -4 -11 -9z"/>
<path d="M3235 1960 c-3 -5 -1 -10 4 -10 6 0 11 5 11 10 0 6 -2 10 -4 10 -3 0
-8 -4 -11 -10z"/>
<path d="M6170 1946 c0 -2 7 -7 16 -10 8 -3 12 -2 9 4 -6 10 -25 14 -25 6z"/>
<path d="M8060 1939 c0 -13 28 -18 33 -6 3 7 -3 13 -14 13 -11 0 -19 -3 -19
-7z"/>
<path d="M1674 1909 c-3 -6 -2 -15 3 -20 5 -5 9 -1 9 11 0 23 -2 24 -12 9z"/>
<path d="M8067 1909 c7 -7 15 -10 18 -7 3 3 -2 9 -12 12 -14 6 -15 5 -6 -5z"/>
<path d="M5510 1891 c0 -5 7 -12 16 -15 14 -5 15 -4 4 9 -14 17 -20 19 -20 6z"/>
<path d="M1646 1881 c-3 -5 1 -11 9 -14 9 -4 12 -1 8 9 -6 16 -10 17 -17 5z"/>
<path d="M6186 1878 c3 -5 10 -6 15 -3 13 9 11 12 -6 12 -8 0 -12 -4 -9 -9z"/>
<path d="M6653 1875 c0 -8 4 -12 9 -9 5 3 6 10 3 15 -9 13 -12 11 -12 -6z"/>
<path d="M8067 1879 c7 -7 15 -10 18 -7 3 3 -2 9 -12 12 -14 6 -15 5 -6 -5z"/>
<path d="M2034 1853 c-17 -18 -17 -20 0 -20 8 0 15 3 14 6 -2 18 3 24 11 13 7
-11 9 -11 14 0 7 19 -21 19 -39 1z"/>
<path d="M2190 1858 c0 -4 4 -8 9 -8 6 0 12 4 15 8 3 5 -1 9 -9 9 -8 0 -15 -4
-15 -9z"/>
<path d="M3806 1854 c-8 -21 -8 -21 12 -29 13 -5 14 -3 5 6 -6 6 -9 18 -6 25
3 8 3 14 0 14 -3 0 -8 -7 -11 -16z"/>
<path d="M8986 1862 c-3 -5 1 -9 9 -9 8 0 12 4 9 9 -3 4 -7 8 -9 8 -2 0 -6 -4
-9 -8z"/>
<path d="M1634 1849 c-3 -6 -2 -15 3 -20 5 -5 9 -1 9 11 0 23 -2 24 -12 9z"/>
<path d="M1989 1844 c6 -12 7 -24 4 -28 -3 -3 -1 -6 5 -6 16 0 15 12 -4 36
-15 18 -15 18 -5 -2z"/>
<path d="M2233 1850 c-13 -5 -23 -12 -23 -15 0 -9 16 -5 36 10 22 16 19 18
-13 5z"/>
<path d="M6188 1853 c7 -3 16 -2 19 1 4 3 -2 6 -13 5 -11 0 -14 -3 -6 -6z"/>
<path d="M6584 1839 c-8 -14 14 -19 25 -6 8 10 7 14 -5 14 -8 0 -17 -4 -20 -8z"/>
<path d="M9206 1833 c-6 -14 -5 -15 5 -6 7 7 10 15 7 18 -3 3 -9 -2 -12 -12z"/>
<path d="M9230 1840 c0 -5 5 -10 11 -10 5 0 7 5 4 10 -3 6 -8 10 -11 10 -2 0
-4 -4 -4 -10z"/>
<path d="M1915 1831 c-3 -5 -2 -12 3 -15 5 -3 9 1 9 9 0 17 -3 19 -12 6z"/>
<path d="M2255 1829 c-4 -6 -5 -12 -2 -15 2 -3 7 2 10 11 7 17 1 20 -8 4z"/>
<path d="M5916 1823 c7 -4 14 -17 17 -28 5 -16 5 -15 4 4 -1 14 -9 26 -17 28
-10 3 -11 2 -4 -4z"/>
<path d="M1601 1806 c-10 -12 -9 -14 6 -12 10 2 21 -1 24 -6 3 -5 9 -2 12 7 4
9 3 13 -3 10 -6 -3 -10 -1 -10 4 0 15 -15 14 -29 -3z"/>
<path d="M5540 1801 c0 -5 7 -12 16 -15 14 -5 15 -4 4 9 -14 17 -20 19 -20 6z"/>
<path d="M6580 1800 c18 -12 30 -13 30 -2 0 4 -10 9 -22 9 -18 2 -20 0 -8 -7z"/>
<path d="M9215 1800 c3 -5 8 -10 11 -10 2 0 4 5 4 10 0 6 -5 10 -11 10 -5 0
-7 -4 -4 -10z"/>
<path d="M6230 1785 c0 -5 5 -17 10 -25 5 -8 10 -10 10 -5 0 6 -5 17 -10 25
-5 8 -10 11 -10 5z"/>
<path d="M6577 1769 c4 -13 8 -18 11 -10 2 7 -1 18 -6 23 -8 8 -9 4 -5 -13z"/>
<path d="M5920 1760 c-9 -6 -10 -10 -3 -10 6 0 15 5 18 10 8 12 4 12 -15 0z"/>
<path d="M7573 1755 c0 -8 4 -12 9 -9 5 3 6 10 3 15 -9 13 -12 11 -12 -6z"/>
<path d="M2485 1740 c-3 -6 1 -7 9 -4 18 7 21 14 7 14 -6 0 -13 -4 -16 -10z"/>
<path d="M3806 1733 c-6 -14 -5 -15 5 -6 7 7 10 15 7 18 -3 3 -9 -2 -12 -12z"/>
<path d="M8065 1741 c-3 -5 0 -13 6 -17 8 -5 9 -3 4 6 -6 9 -1 10 16 5 19 -5
21 -4 9 4 -19 13 -27 14 -35 2z"/>
<path d="M5883 1724 c0 -7 5 -15 12 -17 6 -3 11 3 11 12 0 10 -5 18 -11 18 -7
0 -12 -6 -12 -13z"/>
<path d="M2295 1720 c-3 -5 -1 -10 4 -10 6 0 11 5 11 10 0 6 -2 10 -4 10 -3 0
-8 -4 -11 -10z"/>
<path d="M3425 1720 c-3 -6 1 -7 9 -4 18 7 21 14 7 14 -6 0 -13 -4 -16 -10z"/>
<path d="M6555 1720 c3 -5 8 -10 11 -10 2 0 4 5 4 10 0 6 -5 10 -11 10 -5 0
-7 -4 -4 -10z"/>
<path d="M9220 1726 c0 -2 8 -10 18 -17 15 -13 16 -12 3 4 -13 16 -21 21 -21
13z"/>
<path d="M9200 1716 c0 -2 8 -10 18 -17 15 -13 16 -12 3 4 -13 16 -21 21 -21
13z"/>
<path d="M3806 1694 c-8 -21 -8 -21 12 -29 13 -5 14 -3 5 6 -6 6 -9 18 -6 25
3 8 3 14 0 14 -3 0 -8 -7 -11 -16z"/>
<path d="M3834 1696 c1 -8 5 -18 8 -22 4 -3 5 1 4 10 -1 8 -5 18 -8 22 -4 3
-5 -1 -4 -10z"/>
<path d="M5586 1702 c-3 -5 1 -9 9 -9 8 0 12 4 9 9 -3 4 -7 8 -9 8 -2 0 -6 -4
-9 -8z"/>
<path d="M6551 1693 c7 -12 15 -20 18 -17 3 2 -3 12 -13 22 -17 16 -18 16 -5
-5z"/>
<path d="M3420 1697 c0 -2 6 -10 14 -16 11 -9 16 -9 22 1 4 7 4 10 -1 6 -4 -4
-14 -3 -22 3 -7 6 -13 9 -13 6z"/>
<path d="M8657 1682 c3 -7 9 -10 12 -5 3 4 14 9 23 11 12 2 16 -2 12 -13 -3
-8 -11 -12 -17 -8 -6 4 -7 1 -2 -7 6 -10 12 -7 25 10 11 15 19 19 24 11 9 -14
26 -15 26 -1 0 6 -3 9 -7 9 -5 -1 -10 0 -13 1 -3 1 -24 3 -46 4 -32 2 -41 -1
-37 -12z"/>
<path d="M8780 1686 c14 -14 12 -29 -2 -20 -7 5 -8 3 -3 -6 6 -10 11 -9 22 6
8 10 17 18 21 16 3 -2 8 1 10 6 1 5 -11 9 -27 8 -19 0 -27 -4 -21 -10z"/>
<path d="M8898 1682 c4 -11 6 -11 13 0 7 10 9 10 9 -2 0 -13 1 -13 11 0 9 12
10 11 6 -8 -3 -12 -1 -20 4 -16 5 3 9 13 9 23 0 14 -7 18 -29 17 -20 0 -27 -5
-23 -14z"/>
<path d="M9013 1687 c14 -11 15 -16 5 -20 -9 -4 -9 -6 -1 -6 23 -2 23 18 1 29
-21 10 -22 10 -5 -3z"/>
<path d="M1570 1675 c5 -7 6 -16 2 -21 -4 -5 -3 -5 2 -1 15 12 15 34 0 34 -9
0 -11 -4 -4 -12z"/>
<path d="M4775 1660 c-3 -5 -1 -10 4 -10 6 0 11 5 11 10 0 6 -2 10 -4 10 -3 0
-8 -4 -11 -10z"/>
<path d="M8616 1662 c-3 -4 4 -9 15 -9 23 -2 25 3 4 10 -8 4 -16 3 -19 -1z"/>
<path d="M8867 1659 c7 -7 15 -10 18 -7 3 3 -2 9 -12 12 -14 6 -15 5 -6 -5z"/>
<path d="M2519 1648 c-5 -18 -6 -38 -1 -34 7 8 12 36 6 36 -2 0 -4 -1 -5 -2z"/>
<path d="M1242 1626 c9 -10 15 -11 20 -2 6 8 8 8 8 -1 0 -6 9 -11 20 -10 18 1
18 11 -1 13 -5 1 -10 2 -11 3 -2 2 -13 4 -26 7 -19 3 -21 2 -10 -10z"/>
<path d="M1070 1619 c0 -5 5 -7 10 -4 6 3 10 8 10 11 0 2 -4 4 -10 4 -5 0 -10
-5 -10 -11z"/>
<path d="M1177 1619 c7 -7 15 -10 18 -7 3 3 -2 9 -12 12 -14 6 -15 5 -6 -5z"/>
<path d="M6535 1620 c3 -5 8 -10 11 -10 2 0 4 5 4 10 0 6 -5 10 -11 10 -5 0
-7 -4 -4 -10z"/>
<path d="M8517 1616 c-10 -8 -14 -16 -10 -19 5 -3 14 3 21 14 14 22 13 23 -11
5z"/>
<path d="M1230 1611 c0 -6 4 -13 10 -16 6 -3 7 1 4 9 -7 18 -14 21 -14 7z"/>
<path d="M2480 1606 c0 -2 7 -7 16 -10 8 -3 12 -2 9 4 -6 10 -25 14 -25 6z"/>
<path d="M5855 1600 c-3 -5 -1 -10 4 -10 6 0 11 5 11 10 0 6 -2 10 -4 10 -3 0
-8 -4 -11 -10z"/>
<path d="M6509 1605 c-1 -3 -3 -9 -4 -15 -1 -5 -3 -11 -5 -12 -7 -10 -7 -45 1
-57 7 -12 8 -7 5 17 -4 27 0 35 17 42 21 8 21 9 2 10 -17 0 -17 2 -5 10 10 6
11 10 3 10 -7 0 -14 -2 -14 -5z"/>
<path d="M995 1569 c-4 -12 -3 -25 2 -29 4 -5 8 4 9 21 1 34 -2 37 -11 8z"/>
<path d="M1359 1573 c-13 -16 -12 -17 4 -4 9 7 17 15 17 17 0 8 -8 3 -21 -13z"/>
<path d="M3806 1573 c-6 -14 -5 -15 5 -6 7 7 10 15 7 18 -3 3 -9 -2 -12 -12z"/>
<path d="M4765 1580 c-3 -5 -1 -10 4 -10 6 0 11 5 11 10 0 6 -2 10 -4 10 -3 0
-8 -4 -11 -10z"/>
<path d="M3431 1566 c-9 -10 -8 -16 4 -26 10 -9 15 -9 15 -1 0 6 -5 11 -11 11
-8 0 -8 5 1 15 7 8 10 15 7 15 -2 0 -10 -6 -16 -14z"/>
<path d="M1655 1541 c-3 -5 -2 -12 3 -15 5 -3 9 1 9 9 0 17 -3 19 -12 6z"/>
<path d="M3806 1534 c-8 -21 -8 -21 12 -29 13 -5 14 -3 5 6 -6 6 -9 18 -6 25
3 8 3 14 0 14 -3 0 -8 -7 -11 -16z"/>
<path d="M6313 1535 c0 -8 4 -12 9 -9 5 3 6 10 3 15 -9 13 -12 11 -12 -6z"/>
<path d="M4750 1519 c0 -4 6 -9 13 -12 8 -3 14 0 14 7 0 7 -6 13 -14 13 -7 0
-13 -4 -13 -8z"/>
<path d="M5859 1513 c-13 -16 -12 -17 4 -4 9 7 17 15 17 17 0 8 -8 3 -21 -13z"/>
<path d="M9206 1522 c-2 -4 0 -14 6 -22 8 -12 9 -12 5 2 -3 9 -1 19 6 22 9 3
9 5 0 5 -6 1 -14 -3 -17 -7z"/>
<path d="M8507 1507 c-3 -8 1 -14 8 -14 7 0 11 6 8 14 -3 7 -6 13 -8 13 -2 0
-5 -6 -8 -13z"/>
<path d="M1650 1500 c0 -5 5 -10 11 -10 5 0 7 5 4 10 -3 6 -8 10 -11 10 -2 0
-4 -4 -4 -10z"/>
<path d="M6306 1495 c-9 -26 -7 -32 5 -12 6 10 9 21 6 23 -2 3 -7 -2 -11 -11z"/>
<path d="M6479 1505 c-1 -3 -2 -8 -3 -12 -1 -5 -8 -19 -15 -33 -8 -14 -10 -22
-6 -18 5 4 14 3 21 -3 8 -7 14 -6 20 2 4 7 3 9 -4 5 -23 -14 -24 18 -1 36 18
14 19 17 5 11 -13 -4 -17 -3 -12 5 4 7 5 12 2 12 -3 0 -7 -2 -7 -5z"/>
<path d="M7087 1498 c2 -5 -1 -8 -6 -8 -14 0 -14 -27 -1 -35 5 -3 7 0 4 9 -6
16 24 36 44 29 6 -3 12 -1 12 4 0 5 -13 9 -29 8 -16 0 -27 -3 -24 -7z"/>
<path d="M7230 1500 c0 -5 7 -10 16 -10 9 0 12 -5 8 -12 -4 -7 -4 -10 1 -6 4
4 15 2 23 -5 11 -8 14 -8 9 0 -4 6 -1 14 5 17 9 3 8 5 -2 4 -8 -1 -25 3 -37
10 -15 8 -23 9 -23 2z"/>
<path d="M7350 1497 c0 -5 7 -7 15 -3 12 4 14 0 11 -19 -3 -16 -1 -23 5 -19 6
3 8 8 5 11 -3 3 -1 13 4 22 7 14 4 17 -16 17 -13 0 -24 -4 -24 -9z"/>
<path d="M7110 1469 c0 -5 5 -7 10 -4 6 3 10 8 10 11 0 2 -4 4 -10 4 -5 0 -10
-5 -10 -11z"/>
<path d="M7313 1465 c0 -8 4 -12 9 -9 5 3 6 10 3 15 -9 13 -12 11 -12 -6z"/>
<path d="M1016 1462 c-3 -5 1 -9 9 -9 8 0 12 4 9 9 -3 4 -7 8 -9 8 -2 0 -6 -4
-9 -8z"/>
<path d="M6993 1440 c0 -17 3 -30 6 -30 10 0 12 48 3 54 -5 3 -9 -8 -9 -24z"/>
<path d="M8060 1464 c0 -1 8 -8 17 -15 9 -8 14 -9 10 -2 -4 6 -1 13 5 16 7 3
3 4 -9 4 -13 -1 -23 -2 -23 -3z"/>
<path d="M3430 1445 c-7 -9 -8 -15 -2 -15 5 0 12 7 16 15 3 8 4 15 2 15 -2 0
-9 -7 -16 -15z"/>
<path d="M2510 1441 c0 -6 4 -12 8 -15 5 -3 9 1 9 9 0 8 -4 15 -9 15 -4 0 -8
-4 -8 -9z"/>
<path d="M9200 1436 c0 -2 8 -10 18 -17 15 -13 16 -12 3 4 -13 16 -21 21 -21
13z"/>
<path d="M1670 1421 c0 -6 4 -13 10 -16 6 -3 7 1 4 9 -7 18 -14 21 -14 7z"/>
<path d="M4730 1420 c0 -6 -4 -9 -8 -6 -5 3 -9 -1 -9 -8 0 -7 6 -13 13 -13 7
0 11 4 8 8 -2 4 1 9 8 11 9 3 9 6 0 12 -7 4 -12 2 -12 -4z"/>
<path d="M7030 1419 c0 -5 5 -7 10 -4 6 3 10 8 10 11 0 2 -4 4 -10 4 -5 0 -10
-5 -10 -11z"/>
<path d="M5813 1394 c0 -17 2 -22 7 -13 5 6 6 18 3 26 -8 19 -10 16 -10 -13z"/>
<path d="M6470 1399 c0 -5 5 -7 10 -4 6 3 10 8 10 11 0 2 -4 4 -10 4 -5 0 -10
-5 -10 -11z"/>
<path d="M2690 1380 c0 -5 5 -10 11 -10 5 0 7 5 4 10 -3 6 -8 10 -11 10 -2 0
-4 -4 -4 -10z"/>
<path d="M6449 1377 c6 -8 7 -18 3 -22 -4 -5 -2 -5 5 -1 14 8 6 36 -9 36 -7 0
-6 -5 1 -13z"/>
<path d="M3430 1360 c-6 -11 -8 -20 -6 -20 3 0 10 9 16 20 6 11 8 20 6 20 -3
0 -10 -9 -16 -20z"/>
<path d="M4691 1361 c-12 -11 -18 -22 -13 -25 6 -3 13 1 16 10 3 8 11 12 17 8
7 -4 9 -3 5 4 -3 5 0 13 6 15 8 3 8 6 2 6 -6 1 -21 -8 -33 -18z"/>
<path d="M6952 1375 c4 -4 3 -14 -3 -22 -6 -7 -8 -13 -4 -13 4 0 1 -8 -6 -17
-12 -16 -12 -17 2 -6 9 7 20 9 24 5 5 -4 5 -2 2 5 -4 6 -1 14 5 16 10 4 10 6
0 6 -7 1 -11 5 -7 10 3 5 0 13 -7 17 -7 4 -10 4 -6 -1z"/>
<path d="M1651 1367 c2 -2 11 -8 20 -15 12 -9 16 -9 16 1 0 7 -9 14 -20 14
-11 1 -18 1 -16 0z"/>
<path d="M2506 1358 c3 -5 10 -6 15 -3 13 9 11 12 -6 12 -8 0 -12 -4 -9 -9z"/>
<path d="M5770 1366 c0 -2 7 -7 16 -10 8 -3 12 -2 9 4 -6 10 -25 14 -25 6z"/>
<path d="M5765 1339 c-4 -6 -5 -12 -2 -15 2 -3 7 2 10 11 7 17 1 20 -8 4z"/>
<path d="M6434 1342 c3 -5 0 -13 -6 -15 -9 -4 -10 -6 -1 -6 17 -1 25 16 12 25
-7 4 -9 3 -5 -4z"/>
<path d="M970 1325 c0 -7 30 -13 34 -7 3 4 -4 9 -15 9 -10 1 -19 0 -19 -2z"/>
<path d="M3420 1321 c0 -5 7 -12 16 -15 14 -5 15 -4 4 9 -14 17 -20 19 -20 6z"/>
<path d="M2756 1311 c-3 -5 1 -11 9 -14 9 -4 12 -1 8 9 -6 16 -10 17 -17 5z"/>
<path d="M6409 1301 c-1 -3 -1 -10 0 -15 1 -5 -4 -13 -11 -18 -10 -7 -10 -9 2
-5 8 2 14 12 14 21 -1 12 3 15 16 11 10 -3 21 -2 23 2 3 4 -6 9 -19 9 -13 1
-25 -1 -25 -5z"/>
<path d="M7750 1301 c0 -5 8 -15 18 -22 15 -12 16 -12 5 2 -7 9 -10 19 -6 22
3 4 1 7 -5 7 -7 0 -12 -4 -12 -9z"/>
<path d="M8510 1299 c0 -5 5 -7 10 -4 6 3 10 8 10 11 0 2 -4 4 -10 4 -5 0 -10
-5 -10 -11z"/>
<path d="M1657 1285 c3 -8 9 -12 14 -9 12 7 11 11 -5 17 -10 4 -13 1 -9 -8z"/>
<path d="M3231 1282 c-14 -27 -14 -32 4 -32 8 0 15 -6 15 -12 0 -9 3 -8 9 2
13 19 4 31 -17 23 -15 -6 -15 -5 -3 10 8 10 11 20 8 23 -3 3 -10 -3 -16 -14z"/>
<path d="M1860 1280 c0 -5 5 -10 11 -10 5 0 7 5 4 10 -3 6 -8 10 -11 10 -2 0
-4 -4 -4 -10z"/>
<path d="M2287 1275 c-8 -20 5 -26 26 -10 16 11 16 13 1 19 -21 8 -21 8 -27
-9z"/>
<path d="M4110 1281 c0 -6 4 -13 10 -16 6 -3 7 1 4 9 -7 18 -14 21 -14 7z"/>
<path d="M4560 1260 c-14 -10 -28 -16 -32 -14 -3 2 -10 -1 -14 -7 -4 -7 -3 -9
4 -5 6 3 15 -2 21 -11 8 -14 11 -15 12 -3 1 8 1 18 0 23 0 4 3 7 8 7 5 0 11
-3 14 -7 2 -5 2 -3 1 4 -2 7 1 15 6 18 6 4 10 1 10 -4 0 -6 5 -11 10 -11 15 0
12 17 -3 23 -7 3 -24 -3 -37 -13z"/>
<path d="M8068 1268 c-7 -17 15 -19 29 -3 4 4 3 5 -4 2 -6 -4 -13 -2 -15 5 -3
8 -6 6 -10 -4z"/>
<path d="M3195 1260 c-3 -5 -4 -10 0 -10 3 0 0 -10 -6 -22 -11 -21 -11 -22 4
-10 8 7 15 22 14 33 -1 22 -3 23 -12 9z"/>
<path d="M5721 1256 c-9 -11 -9 -16 0 -22 7 -4 9 -3 5 4 -3 6 2 15 11 21 10 6
13 11 7 11 -6 0 -17 -6 -23 -14z"/>
<path d="M9186 1261 c-3 -5 1 -14 8 -20 10 -9 16 -9 21 -1 4 6 3 10 -2 9 -20
-3 -27 2 -13 11 9 6 10 10 3 10 -6 0 -14 -4 -17 -9z"/>
<path d="M2330 1256 c0 -2 8 -10 18 -17 15 -13 16 -12 3 4 -13 16 -21 21 -21
13z"/>
<path d="M2460 1245 c-7 -9 -8 -15 -2 -15 5 0 12 7 16 15 3 8 4 15 2 15 -2 0
-9 -7 -16 -15z"/>
<path d="M2835 1249 c-4 -5 -4 -13 -1 -16 3 -4 6 0 6 8 0 11 2 11 10 -1 6 -9
10 -10 10 -3 0 17 -17 25 -25 12z"/>
<path d="M3399 1253 c-1 -5 -1 -12 0 -17 1 -5 -5 -6 -14 -2 -10 3 -14 2 -10
-5 9 -14 28 -6 31 14 1 9 0 17 -2 17 -2 0 -5 -3 -5 -7z"/>
<path d="M5750 1250 c-9 -6 -10 -10 -3 -10 6 0 15 5 18 10 8 12 4 12 -15 0z"/>
<path d="M980 1240 c-9 -6 -10 -10 -3 -10 6 0 15 5 18 10 8 12 4 12 -15 0z"/>
<path d="M2230 1240 c0 -5 5 -10 10 -10 6 0 10 5 10 10 0 6 -4 10 -10 10 -5 0
-10 -4 -10 -10z"/>
<path d="M3420 1246 c0 -2 8 -10 18 -17 15 -13 16 -12 3 4 -13 16 -21 21 -21
13z"/>
<path d="M3775 1240 c-3 -5 -1 -10 4 -10 6 0 11 5 11 10 0 6 -2 10 -4 10 -3 0
-8 -4 -11 -10z"/>
<path d="M6350 1235 c-7 -9 -11 -17 -9 -20 3 -2 10 5 17 15 14 24 10 26 -8 5z"/>
<path d="M6865 1230 c-10 -11 -13 -20 -7 -20 7 0 12 5 12 11 0 6 7 9 14 6 10
-4 13 -1 9 9 -7 18 -6 18 -28 -6z"/>
<path d="M7773 1235 c0 -8 4 -12 9 -9 5 3 6 10 3 15 -9 13 -12 11 -12 -6z"/>
<path d="M8030 1240 c-13 -8 -12 -10 3 -10 9 0 17 5 17 10 0 12 -1 12 -20 0z"/>
<path d="M6256 1223 c-6 -14 -5 -15 5 -6 7 7 10 15 7 18 -3 3 -9 -2 -12 -12z"/>
<path d="M7704 1228 c-4 -7 -4 -10 1 -6 4 4 14 3 21 -3 9 -7 14 -6 20 3 4 7 4
10 -1 6 -4 -4 -14 -3 -21 3 -9 7 -14 6 -20 -3z"/>
<path d="M9075 1231 c-3 -5 -2 -12 3 -15 5 -3 9 1 9 9 0 17 -3 19 -12 6z"/>
<path d="M2142 1205 c-9 -18 -8 -26 1 -31 7 -4 9 -3 4 1 -4 5 0 19 8 32 9 13
12 23 7 23 -5 0 -14 -11 -20 -25z"/>
<path d="M2875 1220 c3 -5 8 -10 11 -10 2 0 4 5 4 10 0 6 -5 10 -11 10 -5 0
-7 -4 -4 -10z"/>
<path d="M3107 1217 c4 -6 0 -8 -10 -4 -9 3 -21 -1 -29 -11 -12 -15 -11 -16 5
-3 9 7 17 9 17 4 0 -5 7 -10 14 -10 8 0 14 5 13 11 -1 6 5 10 13 8 8 -2 11 0
7 4 -12 12 -38 14 -30 1z"/>
<path d="M4210 1220 c0 -5 5 -10 11 -10 5 0 7 5 4 10 -3 6 -8 10 -11 10 -2 0
-4 -4 -4 -10z"/>
<path d="M5594 1216 c1 -8 5 -18 8 -22 4 -3 5 1 4 10 -1 8 -5 18 -8 22 -4 3
-5 -1 -4 -10z"/>
<path d="M6315 1221 c6 -10 4 -13 -7 -9 -8 4 -15 1 -15 -6 0 -6 8 -12 17 -12
18 0 21 19 5 33 -4 5 -5 2 0 -6z"/>
<path d="M8000 1226 c0 -2 8 -10 18 -17 15 -13 16 -12 3 4 -13 16 -21 21 -21
13z"/>
<path d="M8427 1223 c-3 -5 5 -8 18 -8 13 0 21 3 18 8 -2 4 -10 7 -18 7 -8 0
-16 -3 -18 -7z"/>
<path d="M897 1209 c7 -7 15 -10 18 -7 3 3 -2 9 -12 12 -14 6 -15 5 -6 -5z"/>
<path d="M2105 1209 c-11 -16 -1 -19 13 -3 7 8 8 14 3 14 -5 0 -13 -5 -16 -11z"/>
<path d="M2969 1201 c6 -10 7 -22 3 -26 -4 -5 -1 -5 6 -1 9 5 9 12 2 27 -6 10
-13 19 -16 19 -2 0 0 -8 5 -19z"/>
<path d="M3350 1209 c0 -5 5 -7 10 -4 6 3 10 8 10 11 0 2 -4 4 -10 4 -5 0 -10
-5 -10 -11z"/>
<path d="M3731 1204 c0 -11 3 -14 6 -6 3 7 2 16 -1 19 -3 4 -6 -2 -5 -13z"/>
<path d="M3755 1211 c-3 -5 -2 -12 3 -15 5 -3 9 1 9 9 0 17 -3 19 -12 6z"/>
<path d="M4251 1204 c0 -11 3 -14 6 -6 3 7 2 16 -1 19 -3 4 -6 -2 -5 -13z"/>
<path d="M4320 1211 c0 -6 4 -13 10 -16 6 -3 7 1 4 9 -7 18 -14 21 -14 7z"/>
<path d="M4373 1205 c0 -8 4 -12 9 -9 4 3 8 0 8 -7 0 -7 2 -10 5 -7 7 7 -5 38
-14 38 -4 0 -8 -7 -8 -15z"/>
<path d="M4407 1203 c5 -12 7 -12 14 -1 8 12 13 4 10 -15 -1 -5 4 -5 10 -2 8
5 8 10 0 18 -17 17 -40 17 -34 0z"/>
<path d="M9118 1213 c7 -3 16 -2 19 1 4 3 -2 6 -13 5 -11 0 -14 -3 -6 -6z"/>
<path d="M960 1200 c-9 -6 -10 -10 -3 -10 6 0 15 5 18 10 8 12 4 12 -15 0z"/>
<path d="M2390 1196 c4 -4 16 -4 26 2 16 9 14 10 -8 9 -15 -1 -23 -6 -18 -11z"/>
<path d="M2930 1206 c0 -2 7 -7 16 -10 8 -3 12 -2 9 4 -6 10 -25 14 -25 6z"/>
<path d="M4290 1201 c0 -6 4 -12 8 -15 5 -3 9 1 9 9 0 8 -4 15 -9 15 -4 0 -8
-4 -8 -9z"/>
<path d="M1976 1173 c-6 -14 -5 -15 5 -6 7 7 10 15 7 18 -3 3 -9 -2 -12 -12z"/>
<path d="M2040 1180 c-9 -6 -10 -10 -3 -10 6 0 15 5 18 10 8 12 4 12 -15 0z"/>
<path d="M3130 1180 c0 -5 5 -10 11 -10 5 0 7 5 4 10 -3 6 -8 10 -11 10 -2 0
-4 -4 -4 -10z"/>
</g>
</svg>
